<svg id="Group_176" data-name="Group 176" xmlns="http://www.w3.org/2000/svg" xmlns:xlink="http://www.w3.org/1999/xlink" width="14.063" height="14.047" viewBox="0 0 14.063 14.047">
  <defs>
    <clipPath id="clip-path">
      <rect id="Rectangle_310" data-name="Rectangle 310" width="14.063" height="14.047" fill="none"/>
    </clipPath>
  </defs>
  <g id="Group_175" data-name="Group 175" clip-path="url(#clip-path)">
    <path id="Path_2282" data-name="Path 2282" d="M7.03,0c-.422.036-.847.052-1.265.113A6.148,6.148,0,0,0,3.925.705a6.875,6.875,0,0,0-1.534,1.03,7.1,7.1,0,0,0-1,1.07A6.9,6.9,0,0,0,.287,5,6.624,6.624,0,0,0,0,6.684,7.674,7.674,0,0,0,.111,8.32a7.086,7.086,0,0,0,.758,2.108,6.989,6.989,0,0,0,.947,1.329A5.992,5.992,0,0,0,3.11,12.864a9.992,9.992,0,0,0,1.109.6,6.634,6.634,0,0,0,2.81.585,6.522,6.522,0,0,0,2.451-.436,7.055,7.055,0,0,0,4.572-6.217,6.754,6.754,0,0,0-.129-1.739,6.971,6.971,0,0,0-2.032-3.693A6.933,6.933,0,0,0,9.1.306,6.372,6.372,0,0,0,7.03,0" transform="translate(0 0)" fill="#f7f9fa"/>
    <path id="Path_2283" data-name="Path 2283" d="M7.03,14.11a6.634,6.634,0,0,1-2.81-.585,9.992,9.992,0,0,1-1.109-.6,5.992,5.992,0,0,1-1.294-1.107,6.99,6.99,0,0,1-.947-1.329A7.085,7.085,0,0,1,.111,8.385,7.673,7.673,0,0,1,0,6.75,6.624,6.624,0,0,1,.287,5.069a6.9,6.9,0,0,1,1.105-2.2,7.1,7.1,0,0,1,1-1.07A6.876,6.876,0,0,1,3.925.771,6.149,6.149,0,0,1,5.765.18C6.183.119,6.608.1,7.03.067q0,.835,0,1.67a5.352,5.352,0,1,0,0,10.7q0,.835,0,1.67" transform="translate(0 -0.065)" fill="#fdda41"/>
    <path id="Path_2284" data-name="Path 2284" d="M255.975,1.67q0-.835,0-1.67a6.372,6.372,0,0,1,2.065.3,6.933,6.933,0,0,1,2.8,1.654,6.971,6.971,0,0,1,2.032,3.694A6.755,6.755,0,0,1,263,7.392a7.06,7.06,0,0,1-4.572,6.217,6.522,6.522,0,0,1-2.451.436V12.375h0a5.352,5.352,0,1,0,0-10.7Z" transform="translate(-248.946 0.001)" fill="#fecb33"/>
    <path id="Path_2285" data-name="Path 2285" d="M66.353,71.566a5.352,5.352,0,1,1,0-10.7h0q0,.837,0,1.674h0a.391.391,0,0,0-.393.245c-.271.539-.533,1.083-.805,1.622a.233.233,0,0,1-.147.111c-.6.1-1.2.187-1.8.269a.415.415,0,0,0-.384.281.428.428,0,0,0,.133.461c.115.111.236.215.351.326q.5.481.99.968a.157.157,0,0,1,.027.12c-.1.592-.207,1.184-.3,1.777a.458.458,0,0,0,.06.406.406.406,0,0,0,.565.095c.568-.294,1.134-.593,1.7-.89l.006.021c0,.046-.005.091-.005.137q0,1.54,0,3.081Z" transform="translate(-59.324 -59.19)" fill="#fda732"/>
    <path id="Path_2286" data-name="Path 2286" d="M255.945,71.551q0-1.54,0-3.081c0-.046,0-.091.005-.137.127.061.256.118.381.182.45.233.9.473,1.35.7a.391.391,0,0,0,.536-.121.534.534,0,0,0,.049-.424c-.095-.566-.19-1.131-.293-1.7a.21.21,0,0,1,.077-.212q.65-.63,1.294-1.265a.417.417,0,0,0,.122-.45.4.4,0,0,0-.354-.28c-.612-.092-1.225-.181-1.837-.276a.187.187,0,0,1-.121-.084q-.41-.807-.809-1.62a.4.4,0,0,0-.4-.271q0-.837,0-1.674a5.352,5.352,0,1,1,0,10.7" transform="translate(-248.916 -59.175)" fill="#fd9823"/>
    <path id="Path_2287" data-name="Path 2287" d="M255.94,121.8a.4.4,0,0,1,.4.271q.4.813.809,1.62a.186.186,0,0,0,.121.084c.612.1,1.225.184,1.837.276a.4.4,0,0,1,.354.28.417.417,0,0,1-.122.45q-.645.635-1.295,1.265a.21.21,0,0,0-.077.212c.1.564.2,1.13.293,1.7a.534.534,0,0,1-.049.424.391.391,0,0,1-.536.121c-.452-.23-.9-.469-1.35-.7-.125-.065-.254-.122-.381-.182l-.006-.022V121.8Z" transform="translate(-248.912 -118.459)" fill="#fecb33"/>
    <path id="Path_2288" data-name="Path 2288" d="M130.328,121.781q0,2.9,0,5.792c-.567.3-1.133.6-1.7.89a.406.406,0,0,1-.565-.095.458.458,0,0,1-.06-.406c.094-.593.2-1.184.3-1.777a.157.157,0,0,0-.027-.12q-.491-.488-.99-.968c-.115-.111-.236-.216-.351-.326a.428.428,0,0,1-.133-.461.415.415,0,0,1,.384-.281c.6-.083,1.2-.174,1.8-.269a.233.233,0,0,0,.147-.111c.272-.539.533-1.083.8-1.622a.391.391,0,0,1,.393-.245" transform="translate(-123.3 -118.436)" fill="#fdda41"/>
  </g>
</svg>
