<svg id="Group_16529" data-name="Group 16529" xmlns="http://www.w3.org/2000/svg" xmlns:xlink="http://www.w3.org/1999/xlink" width="14.07" height="11.564" viewBox="0 0 14.07 11.564">
  <defs>
    <clipPath id="clip-path">
      <rect id="Rectangle_17279" data-name="Rectangle 17279" width="14.07" height="11.564" fill="none"/>
    </clipPath>
  </defs>
  <g id="Mask_Group_16529" data-name="Mask Group 16529" clip-path="url(#clip-path)">
    <path id="Path_2289" data-name="Path 2289" d="M.017,9.377c0,.238-.01.476-.01.715a1.419,1.419,0,0,0,1.48,1.472h5.04q2.715,0,5.43,0a1.379,1.379,0,0,0,1.4-1.161,7.166,7.166,0,0,0,.017-1.025q0-.822.006-1.644l.182-.005a.478.478,0,0,0,.512-.514c0-.243,0-.486,0-.729,0-.711,0-1.423,0-2.134a.476.476,0,0,0-.511-.514l-.182-.005q0-.822-.005-1.644c0-.273.011-.546,0-.819A1.392,1.392,0,0,0,11.984,0Q6.7,0,1.409,0A1.4,1.4,0,0,0,.072,1.011,3.957,3.957,0,0,0,.017,2.188c0,.047-.01.095-.01.142q0,3.453,0,6.905c0,.047.007.095.01.142" transform="translate(-0.001 0)" fill="#f7f9fa"/>
    <path id="Path_2290" data-name="Path 2290" d="M13.6,89.465q0,.822-.006,1.644H.243c0-.047-.01-.095-.01-.142q0-3.453,0-6.905c0-.047.007-.095.01-.142H13.6q0,.822.006,1.644c-.62.008-1.241,0-1.861.026a1.765,1.765,0,0,0-1.351.7,1.956,1.956,0,0,0-.4,1.414,1.9,1.9,0,0,0,1.167,1.606,2.434,2.434,0,0,0,.866.143c.525.007,1.05,0,1.575.007" transform="translate(-0.227 -81.732)" fill="#fdcc1a"/>
    <path id="Path_2291" data-name="Path 2291" d="M13.369,2.187H.016A3.957,3.957,0,0,1,.071,1.011,1.4,1.4,0,0,1,1.408,0Q6.7,0,11.983,0a1.392,1.392,0,0,1,1.391,1.366c.006.273,0,.546,0,.819" transform="translate(0 0)" fill="#fd9823"/>
    <path id="Path_2292" data-name="Path 2292" d="M.265,359.773H13.618A7.166,7.166,0,0,1,13.6,360.8a1.379,1.379,0,0,1-1.4,1.161q-2.715,0-5.43,0H1.734a1.419,1.419,0,0,1-1.48-1.472c0-.238.006-.476.01-.715" transform="translate(-0.248 -350.397)" fill="#fd9823"/>
    <path id="Path_2293" data-name="Path 2293" d="M378.135,150.905c-.525,0-1.05,0-1.575-.007a2.434,2.434,0,0,1-.866-.143,1.9,1.9,0,0,1-1.167-1.606,1.956,1.956,0,0,1,.4-1.414,1.765,1.765,0,0,1,1.351-.7c.62-.022,1.24-.019,1.861-.026l.182.005a.476.476,0,0,1,.511.514c0,.711,0,1.423,0,2.134,0,.243,0,.486,0,.729a.478.478,0,0,1-.512.514l-.182.005m-1.62-1.278a.673.673,0,1,0-.676-.678.677.677,0,0,0,.676.678" transform="translate(-364.76 -143.173)" fill="#fd9823"/>
    <path id="Path_2294" data-name="Path 2294" d="M425.761,197.383a.673.673,0,1,1,.675-.667.674.674,0,0,1-.675.667" transform="translate(-414.007 -190.929)" fill="#fdcc1a"/>
  </g>
</svg>
