<svg id="Group_16595" data-name="Group 16595" xmlns="http://www.w3.org/2000/svg" width="51.392" height="27.703" viewBox="0 0 51.392 27.703">
  <path id="Path_2440" data-name="Path 2440" d="M6125.7,0h34.538V16.667c-.33,0-.661.019-.989-.005-.3-.022-.391.091-.388.388.013,1.338.005,2.677.005,4.016v.507h-.408c-1.246,0-2.491-.011-3.736.007a.646.646,0,0,1-.7-.458,5.394,5.394,0,0,0-3.064-3,5.463,5.463,0,0,0-6.664,2.378,5.9,5.9,0,0,0-.48,1.142c-.092.329-.253.4-.568.4-2.277-.012-4.553-.006-6.83-.006-3.536,0-7.071-.005-10.607.008-.378,0-.5-.092-.5-.487q.018-8.413.01-16.826c0-.2-.075-.44.259-.49.055-.008.112-.218.113-.335.009-1.138,0-2.276,0-3.413Zm31.283,19.353c.652.054.652.054.652-.534q0-.8,0-1.6c0-.618-.014-.628-.652-.5Z" transform="translate(-6108.843 0)" fill="#4f4f4f"/>
  <path id="Path_2441" data-name="Path 2441" d="M5938.087,60.856c0,2.637-.006,5.273.007,7.91,0,.357-.079.511-.464.477a7.272,7.272,0,0,0-1.124,0,.433.433,0,0,1-.513-.359,5.762,5.762,0,0,0-9.955-1.908,11.837,11.837,0,0,0-1.06,1.917c-.114.234-.2.361-.483.351-.642-.022-1.286-.018-1.928,0-.271.007-.379-.068-.378-.357.008-2.757,0-5.514.01-8.271a1.267,1.267,0,0,1,.125-.5c1.1-2.436,2.219-4.867,3.32-7.305a.485.485,0,0,1,.518-.328q5.744.011,11.489,0c.37,0,.442.131.441.467-.012,2.637-.006,5.273-.006,7.91m-14.281.012h.5c1.258,0,2.518.014,3.775-.012a1.257,1.257,0,0,0,.712-.266c.989-.8,1.947-1.636,2.934-2.438a1.125,1.125,0,0,1,.644-.233c1.325-.021,2.651-.018,3.977-.005.3,0,.4-.086.392-.388-.015-1.124-.019-2.248,0-3.372.006-.341-.13-.391-.425-.391q-4.759.012-9.519,0a.462.462,0,0,0-.515.367c-.6,1.672-1.224,3.339-1.839,5.007-.2.547-.4,1.1-.635,1.733" transform="translate(-5922.047 -48.262)" fill="#4f4f4f"/>
  <path id="Path_2442" data-name="Path 2442" d="M5972.188,237.852a4.668,4.668,0,1,1,4.72-4.632,4.68,4.68,0,0,1-4.72,4.632m.04-6.713a2.046,2.046,0,0,0,.028,4.091,2.046,2.046,0,1,0-.028-4.091" transform="translate(-5963.786 -210.15)" fill="#4f4f4f"/>
  <path id="Path_2443" data-name="Path 2443" d="M6369.667,232.363a4.359,4.359,0,1,1-4.375,4.329,4.409,4.409,0,0,1,4.375-4.329m-.027,2.463a1.9,1.9,0,1,0,1.909,1.87,1.892,1.892,0,0,0-1.909-1.87" transform="translate(-6329.54 -213.69)" fill="#4f4f4f"/>
  <path id="Path_2444" data-name="Path 2444" d="M6143.559,278.51v1.262c-.166.011-.307.029-.448.029q-8.676,0-17.354.007c-.338,0-.471-.073-.462-.442.022-.856,0-.857.841-.857h17.423Z" transform="translate(-6108.829 -256.129)" fill="#4f4f4f"/>
  <path id="Path_2445" data-name="Path 2445" d="M6488.582,274.2c0-.2,0-.331,0-.462-.016-.814-.016-.814.816-.814,1.216,0,2.432.008,3.648-.005.3,0,.393.086.392.388,0,.893.01.893-.879.893h-3.976" transform="translate(-6442.919 -250.99)" fill="#4f4f4f"/>
  <rect id="Rectangle_17401" data-name="Rectangle 17401" width="2.317" height="1.664" transform="translate(0 21.487)" fill="#4f4f4f"/>
  <path id="Path_2446" data-name="Path 2446" d="M6097.6,266.945c.521,0,1.039-.009,1.556.011.068,0,.185.147.189.23a11.99,11.99,0,0,1,0,1.243.332.332,0,0,1-.221.235c-.493.022-.987.011-1.522.011Z" transform="translate(-6083.357 -245.491)" fill="#4f4f4f"/>
</svg>
