<svg id="Group_16594" data-name="Group 16594" xmlns="http://www.w3.org/2000/svg" width="51.419" height="17.526" viewBox="0 0 51.419 17.526">
  <path id="Path_2434" data-name="Path 2434" d="M3984.219,77.977c-1.871,0-3.677-.02-5.483,0q-8.416.111-16.833.249c-.525.008-.526,0-.526-.523,0-1.058.005-2.115,0-3.173a2.352,2.352,0,0,0-2.572-2.569c-1.085-.005-2.17-.007-3.254,0a2.668,2.668,0,0,0-2.856,2.827q-.023,1.626,0,3.253c0,.318-.106.433-.414.42a6.57,6.57,0,0,0-.763.021.94.94,0,0,1-1.007-.571c-.049-.1-.127-.236-.222-.268a2.091,2.091,0,0,1-1.28-1.72,6.485,6.485,0,0,1,1.078-5.409,2.216,2.216,0,0,1,1.28-.841,26.054,26.054,0,0,1,5.3-.892c1.106-.1,2.216-.158,3.323-.256a1.572,1.572,0,0,0,.632-.215q3.984-2.336,7.955-4.691a3.337,3.337,0,0,1,1.749-.5q13.882.01,27.763,0c.745,0,.765.314.7.885-.051.465-.479.321-.822.426.091.311.165.617.271.912a19.036,19.036,0,0,1,1.181,7.443.324.324,0,0,0,.321.4.558.558,0,0,1,.493.626c0,.763,0,1.526,0,2.289,0,.469-.165.651-.629.713-.822.109-1.645.22-2.469.316a.74.74,0,0,0-.718.459.618.618,0,0,1-.372.329c-1.011.243-2.03.456-3.1.691-.012-.2-.027-.338-.027-.478,0-1.218,0-2.436,0-3.654a2.334,2.334,0,0,0-2.47-2.509c-1.258-.011-2.519-.024-3.776.025a2.557,2.557,0,0,0-2.409,2.375c-.054,1-.027,2.007-.036,3.01,0,.158,0,.316,0,.6m5.954-13.6c-1.888,0-3.775,0-5.664,0-.518,0-.652.2-.476.683.3.829.617,1.653.922,2.482a1.413,1.413,0,0,0,1.564,1.1q5.282-.033,10.564-.075c.51,0,.56-.077.4-.577-.326-1.018-.669-2.032-.979-3.055a.7.7,0,0,0-.789-.562c-1.847.017-3.7.007-5.543.007m-12.16,0c-.937,0-1.875,0-2.812,0-.475,0-.587.118-.588.6q0,1.727,0,3.454c0,.495.1.6.583.593,1.7-.034,3.4-.068,5.1-.112a1.234,1.234,0,0,0,1.351-1.456c-.052-.828-.143-1.653-.213-2.48-.042-.5-.142-.6-.649-.6-.924,0-1.848,0-2.772,0m-12.133,4.458a.885.885,0,0,0,.161.041l6.378,0c.362,0,.485-.2.487-.537,0-1.123.023-2.245.032-3.368,0-.492-.094-.593-.581-.6-.8,0-1.606-.038-2.406.014a2.935,2.935,0,0,0-1.206.342c-.967.541-1.9,1.148-2.841,1.731-.106.066-.206.143-.331.23a1.173,1.173,0,0,1,.307,2.14" transform="translate(-3948.811 -63.123)" fill="#4f4f4f"/>
  <path id="Path_2435" data-name="Path 2435" d="M4005.711,190.6a3.959,3.959,0,1,1,4.016-3.859,3.967,3.967,0,0,1-4.016,3.859m2.05-5.5c-.287.309-.505.52-.695.754-.15.185-.085.4.132.43a7.534,7.534,0,0,0,1.073.013l-.511-1.2m-4.05,2.983.172.049c.19-.218.385-.432.569-.655.163-.2.089-.453-.148-.473-.309-.026-.621-.006-1.036-.006.173.423.309.754.443,1.086m.174-2.913-.176.048-.434,1.083c.406,0,.708.017,1.007-.005.25-.019.335-.26.172-.462-.183-.226-.378-.443-.569-.664m3.771,2.959.17-.048.43-1.085c-.408,0-.711-.018-1.012.006-.247.02-.329.268-.164.469.184.225.382.439.575.658m-1.542-3.972c0,.417-.021.72.006,1.018a.267.267,0,0,0,.464.17c.233-.191.46-.39.69-.585l-.055-.153-1.105-.451m-1.88.476a9.451,9.451,0,0,0,.793.757c.049.038.353-.107.366-.195a7.292,7.292,0,0,0,.019-1.043l-1.177.48m2.968,4.065.057-.168c-.222-.187-.441-.377-.666-.561s-.455-.1-.477.184c-.023.3-.005.6-.005.994l1.091-.448m-1.788.447a10.092,10.092,0,0,0-.008-1.011c-.027-.25-.2-.351-.428-.194-.259.18-.5.389-.746.586l.094.171,1.087.448" transform="translate(-3997.545 -173.078)" fill="#4f4f4f"/>
  <path id="Path_2436" data-name="Path 2436" d="M4398.09,190.6a3.959,3.959,0,1,1,3.951-3.922,3.985,3.985,0,0,1-3.951,3.922m1.986-5.521c-.287.316-.487.526-.676.747-.17.2-.1.445.155.467.308.027.621.006,1.031.006l-.51-1.22m-3.488,3.448c.02.058.041.115.062.173l1.083.441c0-.406.019-.71-.006-1.011-.021-.258-.256-.335-.463-.167-.228.184-.451.376-.675.564m3.373-.349.167-.076.455-1.107c-.412,0-.715-.019-1.016.006a.268.268,0,0,0-.178.464c.188.24.382.475.573.713M4396.2,185.2h-.159l-.451,1.1c.406,0,.7.016.985-.009a.38.38,0,0,0,.255-.194.329.329,0,0,0-.071-.272c-.175-.218-.371-.419-.559-.627m2.224-1.047c0,.415-.018.717.006,1.016a.273.273,0,0,0,.463.187c.237-.189.467-.389.7-.583l-.057-.159-1.111-.459m1.1,4.539.076-.17c-.237-.191-.471-.385-.711-.571a.268.268,0,0,0-.46.187c-.023.3-.005.6-.005,1.009l1.1-.455m-3.941-1.694.453,1.1.165.063c.194-.234.39-.465.58-.7a.266.266,0,0,0-.18-.46c-.3-.024-.6-.006-1.018-.006m2.142-2.841-1.1.458c-.017.055-.034.109-.05.164.226.187.451.375.678.561.2.165.446.094.469-.157.027-.3.006-.606.006-1.026" transform="translate(-4358.329 -173.072)" fill="#4f4f4f"/>
</svg>
