<svg xmlns="http://www.w3.org/2000/svg" id="Group_16592" data-name="Group 16592" width="51.424" height="18.289" viewBox="0 0 51.424 18.289">
  <path id="Path_2431" data-name="Path 2431" d="M36.437,73.624l-22.95.464a4.693,4.693,0,0,0-1.683-4.9,4.412,4.412,0,0,0-3.027-.971,4.7,4.7,0,0,0-4.411,5.489,7.629,7.629,0,0,1-.828-.1c-.845-.193-1.689-.391-2.524-.623a.754.754,0,0,1-.421-.382A4.584,4.584,0,0,1,.22,69.036,10.6,10.6,0,0,1,.731,67.6a1.785,1.785,0,0,1,.794-.786,29.88,29.88,0,0,1,3.658-1.3c2.069-.537,4.172-.945,6.26-1.412a3.242,3.242,0,0,0,.607-.2c2.9-1.288,5.789-2.589,8.689-3.87a19.717,19.717,0,0,1,6.419-1.5,31.059,31.059,0,0,1,10.466.982,43.15,43.15,0,0,1,5.119,1.75,28.468,28.468,0,0,0,6.825,1.887.973.973,0,0,1,.952,1.119c.006.776-.012,1.553.011,2.329a.938.938,0,0,0,.2.568,3.53,3.53,0,0,1-.59,4.791,1.085,1.085,0,0,1-.431.2c-1.169.227-2.343.429-3.51.665-.31.063-.381-.053-.392-.317a4.618,4.618,0,0,0-8.951-1.26,19.7,19.7,0,0,0-.423,2.37m-17.48-9.166a2.234,2.234,0,0,0,.27.029c2.677-.074,5.354-.153,8.031-.221.257-.007.336-.127.39-.354.285-1.21.586-2.417.878-3.626.041-.171.064-.347.1-.549-.2,0-.329-.012-.459,0-.944.1-1.894.172-2.83.326a15.971,15.971,0,0,0-5.467,1.776c-.524.3-1.009.671-1.575,1.051a1.667,1.667,0,0,1,.661,1.566M29.4,64.045a.845.845,0,0,0,.172.046c2.476-.074,4.952-.147,7.427-.238a.466.466,0,0,0,.324-.265c.386-1.083.38-1.085-.226-2.055-.128-.2-.269-.4-.376-.616a.965.965,0,0,0-.672-.511,21.545,21.545,0,0,0-5.642-.7.311.311,0,0,0-.365.317c-.052.384-.122.766-.184,1.149-.152.949-.3,1.9-.458,2.869M37.5,60.9c-.006.087-.018.119-.008.134.632.876,1.262,1.755,1.907,2.622a.486.486,0,0,0,.338.158c.56.016,1.122,0,1.682.01.244,0,.295-.125.278-.329a1.244,1.244,0,0,0-.773-1.039c-.489-.245-.977-.493-1.476-.718-.638-.288-1.285-.555-1.948-.839" transform="translate(0 -58.441)" fill="#594F4F"/>
  <path id="Path_2432" data-name="Path 2432" d="M63.517,193.511a3.873,3.873,0,1,1,3.824,3.856,3.874,3.874,0,0,1-3.824-3.856m5.328,1.962c-.135-.152-.209-.242-.29-.326a4.62,4.62,0,0,0-.4-.393.25.25,0,0,0-.42.194c-.02.29,0,.582,0,.983l1.115-.459m-1.114-4.423c0,.422-.017.715.005,1a.253.253,0,0,0,.432.174c.225-.2.425-.424.7-.7l-1.14-.474m2.1,2.793c-.4,0-.681-.015-.957.008a.388.388,0,0,0-.265.175.318.318,0,0,0,.059.273c.179.23.38.443.65.752l.513-1.208M65.425,195c.286-.3.487-.489.67-.7.158-.181.09-.433-.126-.45-.311-.025-.625-.006-1.032-.006L65.425,195m.108-2.961-.152.049-.433,1.061c.392,0,.682.014.97,0,.258-.017.348-.244.183-.45-.181-.225-.377-.438-.567-.656m1.506-.988-1.07.44-.067.151c.23.195.453.4.693.582.213.161.4.084.435-.164a8.175,8.175,0,0,0,.009-1.009m0,4.892c0-.412.016-.7,0-.988a.254.254,0,0,0-.445-.186c-.23.19-.449.393-.757.665l1.207.51m2.28-4.007c-.281.324-.486.545-.674.78a.251.251,0,0,0,.181.428c.3.021.6.005,1,.005l-.5-1.213" transform="translate(-58.413 -179.079)" fill="#594F4F"/>
  <path id="Path_2433" data-name="Path 2433" d="M468.315,197.366a3.874,3.874,0,1,1,3.893-3.805,3.894,3.894,0,0,1-3.893,3.805m-1.405-5.875-.085.173c.238.189.471.385.715.565.221.163.406.069.442-.167a7.462,7.462,0,0,0,.011-1.013l-1.082.442M468,195.943c0-.412.016-.692-.009-.968a.384.384,0,0,0-.192-.255.328.328,0,0,0-.27.063c-.234.173-.454.367-.679.552l.061.15,1.089.457m.675-4.9c0,.415-.017.705.005.993.02.26.248.342.454.182.23-.179.456-.363.684-.544l-.076-.17-1.067-.46m0,4.9,1.069-.448.062-.16c-.226-.185-.451-.371-.679-.554-.206-.165-.426-.085-.447.182-.023.287-.005.578-.005.981m-2.783-2.094.434,1.059.171.072c.193-.235.394-.464.575-.707a.253.253,0,0,0-.206-.419c-.291-.017-.583,0-.974,0m-.008-.693c.408,0,.7.019.986-.005s.33-.215.19-.422c-.168-.25-.374-.474-.563-.71l-.168.079-.445,1.058m4.289,1.821.162-.063.43-1.065c-.39,0-.683-.014-.975,0a.253.253,0,0,0-.2.423c.184.241.388.468.583.7m.156-2.891-.158-.051c-.187.224-.379.443-.559.673a.256.256,0,0,0,.195.445c.288.018.578,0,.964,0l-.441-1.071" transform="translate(-427.13 -179.078)" fill="#594F4F"/>
</svg>