<svg id="Group_16593" data-name="Group 16593" xmlns="http://www.w3.org/2000/svg" width="51.441" height="20.711" viewBox="0 0 51.441 20.711">
  <path id="Path_2437" data-name="Path 2437" d="M1967.531,60.948a5.781,5.781,0,0,0-5.21-7.206,5.735,5.735,0,0,0-5.887,7.188c-1.022,0-2,.06-2.966-.022-.625-.052-.933-.584-1.052-1.175q-.266-1.317-.493-2.642a1.4,1.4,0,0,1,.505-1.4.627.627,0,0,0,.19-.365c.048-.33.062-.666.083-1a2.221,2.221,0,0,1,.978-1.754,14.241,14.241,0,0,1,5.19-2.154,36.551,36.551,0,0,1,8.135-.793,1.052,1.052,0,0,0,.843-.346c1.3-1.4,2.619-2.792,3.928-4.184-.3-.289-.269-.416.279-.743a7.255,7.255,0,0,1,3.8-.972c5.664,0,11.328.014,16.991-.014a5.576,5.576,0,0,1,4.134,1.713,31.491,31.491,0,0,1,3.92,4.4,7.869,7.869,0,0,1,1.217,3.982.652.652,0,0,0,.132.392,3.7,3.7,0,0,1,1.032,3.359c-.156,1.1-.416,2.178-.655,3.261-.125.569-.177.58-.766.445a5.758,5.758,0,0,0-5.29-7.179,5.734,5.734,0,0,0-5.8,7.209Zm2.442-11.375c.348,0,.651-.018.951,0,.376.028.579-.054.609-.5a1.079,1.079,0,0,1,.8-.962.928.928,0,0,1,1.055.3,1.856,1.856,0,0,1,.348.744c.059.274.147.37.439.365q5.017-.083,10.035-.135c.309,0,.384-.115.381-.4-.012-1.15,0-2.3-.006-3.451,0-.1-.02-.207-.032-.33-.123-.011-.226-.028-.33-.029-3.185,0-6.37,0-9.555.009a.838.838,0,0,0-.518.224q-1.394,1.329-2.758,2.69c-.464.46-.91.94-1.418,1.467m19.322-.293a1.613,1.613,0,0,0,.21.027c2.635-.033,5.271-.06,7.906-.117a.786.786,0,0,0,.6-.356.768.768,0,0,0-.152-.673q-1.175-1.257-2.42-2.448a1.969,1.969,0,0,0-1.4-.526q-2.248-.005-4.5,0a1.909,1.909,0,0,0-.252.036Zm-2.525-2.019c0,.575-.009,1.149.008,1.723,0,.114.1.225.161.337.049-.108.139-.216.14-.324q.015-1.744,0-3.487c0-.105-.1-.21-.148-.315-.054.1-.151.2-.153.3-.015.588-.007,1.176-.007,1.764" transform="translate(-1951.896 -43.369)" fill="#4f4f4f"/>
  <path id="Path_2438" data-name="Path 2438" d="M2456.089,190.542a4.628,4.628,0,1,1-4.711-4.579,4.637,4.637,0,0,1,4.711,4.579m-6.326-2.334-.035.157c.274.248.541.5.824.74a.312.312,0,0,0,.494-.185c.026-.378.007-.758.007-1.257l-1.29.545m3.94,4.113.154-.027.513-1.3c-.478,0-.823-.014-1.167,0a.313.313,0,0,0-.252.508c.238.283.5.545.752.815m-4.645-.045.167.038c.252-.27.514-.533.753-.815a.311.311,0,0,0-.183-.494c-.378-.027-.76-.007-1.251-.007l.515,1.279m.176-3.407-.166.021-.519,1.293c.47,0,.829.013,1.186-.009a.343.343,0,0,0,.252-.188.432.432,0,0,0-.058-.347c-.215-.27-.461-.516-.7-.771m2.635,4.645,1.432-.605c-.369-.332-.629-.577-.9-.808a.305.305,0,0,0-.524.2c-.022.355-.006.713-.006,1.213m2.52-3.331-.584-1.395c-.335.35-.591.6-.828.868a.3.3,0,0,0,.2.521c.357.021.717.005,1.212.005m-3.331,3.33c0-.4,0-.67,0-.935a2.029,2.029,0,0,0-.006-.281.306.306,0,0,0-.5-.213c-.286.234-.556.489-.833.735l.057.16,1.284.534m2.155-5.146-.044-.163-1.3-.537c0,.483-.017.852.006,1.219a.312.312,0,0,0,.5.215c.286-.234.557-.488.834-.734" transform="translate(-2407.061 -174.502)" fill="#4f4f4f"/>
  <path id="Path_2439" data-name="Path 2439" d="M2024.143,195.21a4.626,4.626,0,1,1,4.621-4.6,4.656,4.656,0,0,1-4.621,4.6m2.21-2.866.183-.06.509-1.293c-.484,0-.853-.018-1.22.006a.317.317,0,0,0-.2.51c.233.286.484.558.727.836m-1.824-4.675c0,.482-.014.841,0,1.2a.319.319,0,0,0,.495.243c.285-.251.544-.533.894-.882l-1.394-.558m-2.8,4.6.188.074c.244-.281.5-.555.728-.845a.313.313,0,0,0-.22-.5c-.367-.019-.735-.005-1.218-.005l.522,1.278m4.777-3.45c-.174.161-.272.247-.365.338-.17.167-.349.328-.5.51a.3.3,0,0,0,.188.5c.377.023.756.006,1.228.006l-.549-1.359m-.681,4.161.019-.16c-.253-.236-.5-.481-.763-.7a.367.367,0,0,0-.308-.071.406.406,0,0,0-.231.265c-.028.354-.011.712-.011,1.185l1.294-.516m-3.426-.172.046.181,1.275.5c0-.475.013-.832-.009-1.188a.349.349,0,0,0-.194-.243.374.374,0,0,0-.312.048c-.279.221-.539.467-.806.7m.03-4.607-.049.167c.278.244.55.5.837.728a.305.305,0,0,0,.5-.214c.02-.368.005-.737.005-1.216l-1.291.535m-.528.633-.153.047-.538,1.3c.477,0,.848.014,1.218-.005a.306.306,0,0,0,.209-.5c-.235-.288-.49-.56-.736-.839" transform="translate(-2014.065 -174.499)" fill="#4f4f4f"/>
</svg>
