<svg xmlns="http://www.w3.org/2000/svg" width="26" height="26" viewBox="0 0 26 26">
  <g id="Group_16581" data-name="Group 16581" transform="translate(-36 -481)">
    <rect id="Rectangle_17355" data-name="Rectangle 17355" width="26" height="26" transform="translate(36 481)" fill="#fff"/>
    <path id="wallet" d="M19.575,8.088a2.3,2.3,0,0,0-1.388-.463h-.509a2.314,2.314,0,0,0-2.266-1.85H7.088a2.314,2.314,0,0,0-2.266,1.85H4.313A1.387,1.387,0,0,1,2.925,6.238V5.313A1.387,1.387,0,0,1,4.313,3.925H18.188a1.387,1.387,0,0,1,1.388,1.388Zm-13.8-.463A1.388,1.388,0,0,1,7.088,6.7h8.325a1.388,1.388,0,0,1,1.309.925Zm13.8,3.7H16.337a2.313,2.313,0,0,0,0,4.625h3.238v1.388a1.387,1.387,0,0,1-1.388,1.387H4.313a1.387,1.387,0,0,1-1.387-1.387V8.088a2.3,2.3,0,0,0,1.387.462H18.188a1.387,1.387,0,0,1,1.388,1.388Zm0,3.7H16.337a1.387,1.387,0,0,1,0-2.775h3.238ZM18.188,3H4.313A2.312,2.312,0,0,0,2,5.313V17.338A2.312,2.312,0,0,0,4.313,19.65H18.188A2.312,2.312,0,0,0,20.5,17.338V5.313A2.312,2.312,0,0,0,18.188,3Z" transform="translate(38 483)" fill="#1c1c1c"/>
  </g>
</svg>
