<svg id="Group_16538" data-name="Group 16538" xmlns="http://www.w3.org/2000/svg" xmlns:xlink="http://www.w3.org/1999/xlink" width="57.79" height="46.033" viewBox="0 0 57.79 46.033">
  <defs>
    <clipPath id="clip-path">
      <rect id="Rectangle_17297" data-name="Rectangle 17297" width="57.79" height="46.033" fill="none"/>
    </clipPath>
  </defs>
  <g id="Group_16537" data-name="Group 16537" clip-path="url(#clip-path)">
    <path id="Path_2307" data-name="Path 2307" d="M20.319,180.6c-.583.006-1.165.018-1.748.018q-8.321,0-16.642,0A1.775,1.775,0,0,1,0,178.691q0-12.517,0-25.035a1.771,1.771,0,0,1,1.925-1.923l12.523-.019,5.866.037a2.035,2.035,0,0,1,1.37,2.142q-.031,12.279,0,24.558a2.039,2.039,0,0,1-1.366,2.145m-4.987-23.429c.006.338.034.677.014,1.013a4.369,4.369,0,0,1-2.53,3.908,4.265,4.265,0,0,1-4.63-.407,4.644,4.644,0,0,1-1.843-4.514,2.016,2.016,0,0,0,1.185-2.082,2.246,2.246,0,0,0-2.085-1.876,2.215,2.215,0,0,0-2.117,1.827A1.966,1.966,0,0,0,4.5,157.166c.008.356.016.712.025,1.069a6.318,6.318,0,0,0,11.963,2.651,7.939,7.939,0,0,0,.7-3.72,2.016,2.016,0,0,0,1.185-2.082,2.246,2.246,0,0,0-2.085-1.876,2.216,2.216,0,0,0-2.118,1.827,1.966,1.966,0,0,0,1.171,2.131" transform="translate(0 -134.589)" fill="#4e96cf"/>
    <path id="Path_2308" data-name="Path 2308" d="M240.277,119.758a16.066,16.066,0,0,1,10.515,3.883,15.9,15.9,0,0,1,5.641,10.7A16.244,16.244,0,0,1,243.9,151.861a20.3,20.3,0,0,1-5.325.387l-3.939-.969c-1.376-.76-2.818-1.423-4.113-2.3a15.648,15.648,0,0,1-4.674-5.407c-.041-.1-.076-.211-.124-.311a16.24,16.24,0,0,1-1.489-9.84,18.364,18.364,0,0,1,1.613-4.946,17.735,17.735,0,0,1,4.067-4.968,18.109,18.109,0,0,1,4.948-2.836,18.81,18.81,0,0,1,5.416-.91m-9.025,16.015.014,1.722c-.006,2.458-.02,4.917-.013,7.375a1.688,1.688,0,0,0,1.388,1.623,22.261,22.261,0,0,0,2.239.05h1.766l2.384-.033q4.115.009,8.23.017a1.813,1.813,0,0,0,2.047-2.043q0-4.057,0-8.114V135.7c.27,0,.472,0,.673,0,.828-.01,1.127-.3,1.132-1.113q.007-1.127,0-2.254c-.006-.785-.351-1.132-1.136-1.144-.732-.012-1.465-.017-2.2-.025.1-.043.2-.089.308-.129a3.185,3.185,0,0,0,2.111-3.307,3.113,3.113,0,0,0-2.792-2.8,4.757,4.757,0,0,0-3.392.774,41.127,41.127,0,0,0-3.174,2.76c-.191.169-.371.348-.59.555-.734-.742-1.422-1.433-2.107-2.128a6.393,6.393,0,0,0-4.348-1.993,3.082,3.082,0,0,0-2.993,1.537,3.02,3.02,0,0,0,.008,3.26,3.509,3.509,0,0,0,1.931,1.464c-.766.008-1.532,0-2.3.027a.916.916,0,0,0-1,1.019q-.011,1.261,0,2.522c0,.628.244.883.895.982l.043.031.051-.008.821.047" transform="translate(-198.737 -106.24)" fill="#fd6e91"/>
    <path id="Path_2309" data-name="Path 2309" d="M149.672,78.1a18.106,18.106,0,0,0-4.948,2.836,17.739,17.739,0,0,0-4.067,4.968c-.006-1.088,0-2.176-.02-3.264a1.763,1.763,0,0,0-1.762-1.817c-1.67-.016-3.341.006-5.011.011L128,80.8q0-3.575,0-7.15a1.748,1.748,0,0,1,1.864-1.856c.882,0,1.765.006,2.647.01q0,.9-.009,1.8a2.5,2.5,0,0,0-.574.318,2.106,2.106,0,1,0,2.98,2.975,2,2,0,0,0-.576-3.293q0-.9-.009-1.8l1.8-.027h1.822l5.407.027q0,.9-.009,1.8a2.5,2.5,0,0,0-.574.318,2.106,2.106,0,1,0,2.98,2.975,2,2,0,0,0-.576-3.293q0-.9-.009-1.8l1.8-.027,1.367.035a2,2,0,0,1,1.36,2.138c-.043,1.383-.009,2.769-.008,4.153" transform="translate(-113.549 -63.674)" fill="#555a6e"/>
    <path id="Path_2310" data-name="Path 2310" d="M179.969,151.9c1.67-.006,3.341-.027,5.011-.011a1.763,1.763,0,0,1,1.763,1.817c.016,1.088.014,2.176.02,3.264a18.363,18.363,0,0,0-1.613,4.946,16.24,16.24,0,0,0,1.489,9.84c.049.1.083.207.124.311-.006,2.177-.04,4.355-.005,6.531a2.039,2.039,0,0,1-1.366,2.148h-5.419a2.039,2.039,0,0,0,1.366-2.144q-.031-12.279,0-24.559a2.035,2.035,0,0,0-1.37-2.142" transform="translate(-159.654 -134.742)" fill="#296cb1"/>
    <path id="Path_2311" data-name="Path 2311" d="M178.728,9.967q0-.9.009-1.8c0-.544-.013-1.088.006-1.631a4.468,4.468,0,0,0-.915-2.889,3.007,3.007,0,0,0-1.917-1.361,2.809,2.809,0,0,0-2.706-.226l-.108.011.006,0a1.442,1.442,0,0,0-.388.036,4.254,4.254,0,0,0-2.866,3.268,18.992,18.992,0,0,0-.136,2.795q0,.9.009,1.8c0,.563,0,1.127-.015,1.69a.907.907,0,1,1-1.8,0c-.012-.563-.01-1.127-.015-1.69q0-.9.009-1.8a26.4,26.4,0,0,1,.135-2.966A6.273,6.273,0,0,1,173.041.142a8.751,8.751,0,0,1,3.115.125c.145.078.3.144.434.235.72.482,1.435.971,2.152,1.457l.231.1,0-.006a1.222,1.222,0,0,0,.131.3,5.188,5.188,0,0,1,1.262,2.638c.125,1.05.13,2.115.188,3.174q0,.9.009,1.8c0,.563,0,1.127-.014,1.69a.907.907,0,1,1-1.8,0c-.012-.563-.01-1.127-.014-1.69" transform="translate(-148.941 -0.04)" fill="#d6e5ef"/>
    <path id="Path_2312" data-name="Path 2312" d="M228.005,339.371a2.038,2.038,0,0,0,1.366-2.148c-.034-2.177,0-4.354.005-6.531a15.649,15.649,0,0,0,4.674,5.407c1.294.88,2.737,1.543,4.113,2.3l-1.123.969h-9.036" transform="translate(-202.268 -293.364)" fill="#555a6e"/>
    <path id="Path_2313" data-name="Path 2313" d="M309.4,78.095c0-1.385-.035-2.77.008-4.153a2,2,0,0,0-1.36-2.138l.453-.035q2.171.008,4.342.017a1.821,1.821,0,0,1,1.972,1.961c.005,1.146,0,2.292,0,3.439a18.813,18.813,0,0,0-5.416.91" transform="translate(-273.273 -63.667)" fill="#483c4c"/>
    <path id="Path_2314" data-name="Path 2314" d="M249.114,8.1l-.453.036L247.293,8.1c0-.451-.008-.9.011-1.353A4.688,4.688,0,0,0,246.648,4a3.928,3.928,0,0,0-2.731-1.981l0,.006-.231-.1c-.717-.487-1.433-.975-2.152-1.458C241.4.371,241.249.3,241.1.227a6.321,6.321,0,0,1,8,6.075c0,.6.005,1.2.008,1.8" transform="translate(-213.888 0)" fill="#a4c1da"/>
    <path id="Path_2315" data-name="Path 2315" d="M308.053,399.973l1.123-.969,3.939.969h-5.062" transform="translate(-273.28 -353.965)" fill="#483c4c"/>
    <path id="Path_2316" data-name="Path 2316" d="M52.5,178.613a7.939,7.939,0,0,1-.7,3.72,6.318,6.318,0,0,1-11.963-2.651c-.009-.356-.017-.712-.025-1.069.007-.581.007-1.162.023-1.743a.9.9,0,1,1,1.8,0c.017.581.016,1.162.023,1.743a4.644,4.644,0,0,0,1.843,4.514,4.265,4.265,0,0,0,4.63.407,4.369,4.369,0,0,0,2.53-3.908c.02-.336-.008-.675-.014-1.013.007-.581.007-1.162.023-1.743a.9.9,0,1,1,1.8,0c.017.581.016,1.162.023,1.743" transform="translate(-35.325 -156.035)" fill="#d6e5ef"/>
    <path id="Path_2317" data-name="Path 2317" d="M128.187,168.9c-.007-.581-.006-1.162-.023-1.743a.9.9,0,1,0-1.8,0c-.016.581-.016,1.162-.023,1.743a1.965,1.965,0,0,1-1.171-2.131,2.216,2.216,0,0,1,2.118-1.827,2.246,2.246,0,0,1,2.085,1.876,2.016,2.016,0,0,1-1.185,2.082" transform="translate(-111.009 -146.326)" fill="#296cb1"/>
    <path id="Path_2318" data-name="Path 2318" d="M32.187,168.9c-.007-.581-.006-1.162-.023-1.743a.9.9,0,1,0-1.8,0c-.016.581-.016,1.162-.023,1.743a1.965,1.965,0,0,1-1.171-2.131,2.216,2.216,0,0,1,2.118-1.827,2.246,2.246,0,0,1,2.085,1.876,2.016,2.016,0,0,1-1.185,2.082" transform="translate(-25.845 -146.326)" fill="#296cb1"/>
    <path id="Path_2319" data-name="Path 2319" d="M346.884,220.778c.733.008,1.465.013,2.2.025.784.013,1.13.359,1.136,1.144q.009,1.127,0,2.254c-.005.812-.3,1.1-1.132,1.113-.2,0-.4,0-.673,0v.672q0,4.057,0,8.114a1.813,1.813,0,0,1-2.047,2.043q-4.115,0-8.23-.017a2.03,2.03,0,0,0,1.244-1.735c.009-2.27,0-4.541.01-6.811,0-.375-.139-.485-.5-.48-1.032.014-2.065,0-3.1,0l-.054.008q0-.894.006-1.788c1.178-.006,2.357-.006,3.535-.019a.887.887,0,0,0,1-1c.01-.8,0-1.608,0-2.412a.974.974,0,0,0-.707-1.022c1.16-.012,2.32-.047,3.479-.025a.858.858,0,0,1,.834.949c.016.731.04,1.464-.008,2.192a8.932,8.932,0,0,1-.289,1.338c-.051,0,.022.008.1.008.337,0,.675.009,1.013,0a.908.908,0,0,0,1-1.021c.01-.675-.014-1.35.008-2.024a1.552,1.552,0,0,0-.621-1.5Z" transform="translate(-297.843 -195.857)" fill="#a4c1da"/>
    <path id="Path_2320" data-name="Path 2320" d="M297.315,171.418h-1.8a1.552,1.552,0,0,1,.621,1.5c-.022.674,0,1.349-.008,2.024a.908.908,0,0,1-1,1.021c-.337.011-.675,0-1.012,0-.074,0-.147-.013-.1-.008a8.931,8.931,0,0,0,.289-1.338c.048-.728.024-1.461.008-2.192a.858.858,0,0,0-.834-.949c-1.159-.022-2.319.013-3.479.025l-4.267.016-1.726-.077-1.741-.034a3.507,3.507,0,0,1-1.931-1.464,3.019,3.019,0,0,1-.008-3.26,3.082,3.082,0,0,1,2.993-1.537,6.393,6.393,0,0,1,4.348,1.993c.685.695,1.373,1.386,2.107,2.128.219-.206.4-.386.59-.555a41.127,41.127,0,0,1,3.174-2.76,4.757,4.757,0,0,1,3.392-.774,3.114,3.114,0,0,1,2.792,2.8,3.185,3.185,0,0,1-2.111,3.306c-.1.04-.206.086-.309.129m-5.253-1.781c1.611,0,3.1,0,4.58,0a1.307,1.307,0,0,0,.489-.109A1.327,1.327,0,0,0,297.9,168a1.438,1.438,0,0,0-1.595-1.046c-1.867.111-3.026,1.325-4.243,2.686m-4.471-.015a9.055,9.055,0,0,0-2.583-2.208,6.611,6.611,0,0,0-1.844-.453,1.337,1.337,0,0,0-1.471,1.244,1.271,1.271,0,0,0,1.11,1.4c1.551.048,3.1.015,4.788.015" transform="translate(-248.273 -146.497)" fill="#483c4c"/>
    <path id="Path_2321" data-name="Path 2321" d="M291.664,285.849a22.388,22.388,0,0,1-2.239-.05,1.688,1.688,0,0,1-1.388-1.623c-.007-2.458.007-4.917.013-7.375l3.569-.012c.008.243.023.486.024.73q.012,4.165.021,8.331" transform="translate(-255.522 -245.544)" fill="#d6e5ef"/>
    <path id="Path_2322" data-name="Path 2322" d="M335.869,276.789c1.033,0,2.065.016,3.1,0,.358,0,.5.1.5.48-.013,2.27,0,4.541-.01,6.811a2.03,2.03,0,0,1-1.244,1.735l-2.384.033c.007-.469.017-.938.019-1.406q.014-3.827.025-7.654" transform="translate(-297.917 -245.545)" fill="#d6e5ef"/>
    <path id="Path_2323" data-name="Path 2323" d="M275.275,220.712l1.741.034a1.7,1.7,0,0,0-.535,1.516,17.908,17.908,0,0,1,0,1.855,1.18,1.18,0,0,0,.526,1.106c-.391.007-.783.009-1.174.023-.684.025-1.367.057-2.05.086l-.82-.046a.149.149,0,0,0-.095-.023c-.651-.1-.89-.354-.895-.982q-.01-1.261,0-2.522a.916.916,0,0,1,1-1.019c.766-.023,1.532-.019,2.3-.027" transform="translate(-241.272 -195.798)" fill="#d6e5ef"/>
    <path id="Path_2324" data-name="Path 2324" d="M321.638,276.788q-.012,3.827-.025,7.654c0,.469-.013.937-.019,1.406h-1.766q-.01-4.165-.021-8.331c0-.243-.015-.487-.024-.73l.054.008h1.747Z" transform="translate(-283.686 -245.544)" fill="#555a6e"/>
    <path id="Path_2325" data-name="Path 2325" d="M288.048,260.786c.683-.029,1.367-.061,2.05-.086.391-.014.782-.015,1.173-.023l.4.132q.007.847.014,1.694l-.054-.008-3.569.012-.014-1.722" transform="translate(-255.534 -231.253)" fill="#a4c1da"/>
    <path id="Path_2326" data-name="Path 2326" d="M279.945,261.016a.15.15,0,0,1,.094.023l-.051.008Z" transform="translate(-248.345 -231.552)" fill="#a4c1da"/>
    <path id="Path_2327" data-name="Path 2327" d="M204.314,16.22a4.443,4.443,0,0,0-2.588,4.232c-.005.541,0,1.082.007,1.623h-1.822c0-.3.015-.6.006-.9a6.986,6.986,0,0,1,.494-3.3c.312-.651.726-1.253,1.095-1.877l-.006,0h.054l.053-.012a2.809,2.809,0,0,1,2.706.226" transform="translate(-177.343 -13.972)" fill="#a4c1da"/>
    <path id="Path_2328" data-name="Path 2328" d="M158.439,87.946c0,.563,0,1.127.014,1.69a.907.907,0,1,0,1.8,0c.013-.563.01-1.127.015-1.69a2,2,0,0,1,.576,3.293,2.106,2.106,0,1,1-2.98-2.975,2.5,2.5,0,0,1,.574-.318" transform="translate(-139.487 -78.019)" fill="#33293d"/>
    <path id="Path_2329" data-name="Path 2329" d="M254.438,87.946c0,.563,0,1.127.014,1.69a.907.907,0,1,0,1.8,0c.013-.563.01-1.127.014-1.69a2,2,0,0,1,.576,3.293,2.106,2.106,0,1,1-2.98-2.975,2.5,2.5,0,0,1,.574-.318" transform="translate(-224.651 -78.019)" fill="#33293d"/>
    <path id="Path_2330" data-name="Path 2330" d="M264.014,17.011l.231.1-.231-.1" transform="translate(-234.212 -15.091)" fill="#f7f9fa"/>
    <path id="Path_2331" data-name="Path 2331" d="M214.12,17.911l-.053.013h-.055l.108-.011" transform="translate(-189.855 -15.889)" fill="#f7f9fa"/>
    <path id="Path_2332" data-name="Path 2332" d="M328.361,221.569l4.267-.016a.974.974,0,0,1,.707,1.022c0,.8.006,1.608,0,2.412a.887.887,0,0,1-1,1c-1.178.013-2.356.013-3.535.019l-.32-.006a1.242,1.242,0,0,1-.568-1.2c.034-.655.032-1.314,0-1.969a1.527,1.527,0,0,1,.454-1.265" transform="translate(-290.89 -196.544)" fill="#d6e5ef"/>
    <path id="Path_2333" data-name="Path 2333" d="M321.584,260.959l.32.006q0,.894-.006,1.788H320.15q-.007-.847-.014-1.695l1.448-.1" transform="translate(-283.999 -231.502)" fill="#483c4c"/>
    <path id="Path_2334" data-name="Path 2334" d="M387.922,183.859c1.217-1.361,2.376-2.575,4.243-2.686a1.438,1.438,0,0,1,1.595,1.046,1.327,1.327,0,0,1-.769,1.527,1.306,1.306,0,0,1-.489.109c-1.485.008-2.969,0-4.58,0" transform="translate(-344.134 -160.719)" fill="#fd6e91"/>
    <path id="Path_2335" data-name="Path 2335" d="M301.93,183.9c-1.684,0-3.237.033-4.788-.015a1.271,1.271,0,0,1-1.11-1.4,1.337,1.337,0,0,1,1.471-1.244,6.611,6.611,0,0,1,1.844.453,9.056,9.056,0,0,1,2.583,2.208" transform="translate(-262.612 -160.772)" fill="#fd6e91"/>
    <path id="Path_2336" data-name="Path 2336" d="M314.252,225.521l-1.448.1-.4-.132a1.18,1.18,0,0,1-.526-1.106,17.917,17.917,0,0,0,0-1.855,1.7,1.7,0,0,1,.535-1.516l1.726.077a1.527,1.527,0,0,0-.454,1.265c.032.655.033,1.314,0,1.969a1.242,1.242,0,0,0,.568,1.2" transform="translate(-276.667 -196.064)" fill="#555a6e"/>
    <path id="Path_2337" data-name="Path 2337" d="M406.379,260.968c.019,0,.037.017.037.046q-.008,4.556-.017,9.111c0,.561-.008,1.123-.013,1.684h-1.2q-.007-4.988-.014-9.976c0-.291-.01-.583-.016-.874l.03.007Z" transform="translate(-359.422 -231.502)" fill="#555a6e"/>
  </g>
</svg>
