<svg xmlns="http://www.w3.org/2000/svg" width="26" height="26" viewBox="0 0 26 26">
  <g id="Group_16580" data-name="Group 16580" transform="translate(-36 -539)">
    <rect id="Rectangle_17356" data-name="Rectangle 17356" width="26" height="26" transform="translate(36 539)" fill="#fff"/>
    <path id="cog" d="M17.187,5.909l1.484-.3a1.5,1.5,0,0,1,1.6.72l.779,1.35a1.5,1.5,0,0,1-.177,1.745l-1,1.132a8.08,8.08,0,0,1,0,2.9l1,1.132a1.5,1.5,0,0,1,.177,1.745l-.779,1.35a1.5,1.5,0,0,1-1.6.72l-1.484-.3A7.992,7.992,0,0,1,14.68,19.54L14.2,20.974A1.5,1.5,0,0,1,12.779,22H11.221A1.5,1.5,0,0,1,9.8,20.974L9.32,19.54a7.991,7.991,0,0,1-2.507-1.449l-1.484.3a1.5,1.5,0,0,1-1.6-.72l-.779-1.35a1.5,1.5,0,0,1,.177-1.745l1-1.132a8.08,8.08,0,0,1,0-2.9l-1-1.132A1.5,1.5,0,0,1,2.95,7.675l.779-1.35a1.5,1.5,0,0,1,1.6-.72l1.484.3A7.992,7.992,0,0,1,9.32,4.46L9.8,3.026A1.5,1.5,0,0,1,11.221,2h1.558A1.5,1.5,0,0,1,14.2,3.026L14.68,4.46a7.991,7.991,0,0,1,2.507,1.449Zm-3.054-.579a.5.5,0,0,1-.322-.318l-.557-1.671A.5.5,0,0,0,12.779,3H11.221a.5.5,0,0,0-.474.342L10.19,5.012a.5.5,0,0,1-.322.318A6.992,6.992,0,0,0,7.293,6.819a.5.5,0,0,1-.437.12L5.129,6.585a.5.5,0,0,0-.533.24l-.779,1.35a.5.5,0,0,0,.059.582l1.169,1.318a.5.5,0,0,1,.115.437,7.069,7.069,0,0,0,0,2.976.5.5,0,0,1-.115.437L3.875,15.243a.5.5,0,0,0-.059.582l.779,1.35a.5.5,0,0,0,.533.24l1.728-.354a.5.5,0,0,1,.437.12,6.992,6.992,0,0,0,2.575,1.488.5.5,0,0,1,.322.318l.557,1.671a.5.5,0,0,0,.474.342h1.558a.5.5,0,0,0,.474-.342l.557-1.671a.5.5,0,0,1,.322-.318,6.992,6.992,0,0,0,2.575-1.488.5.5,0,0,1,.437-.12l1.728.354a.5.5,0,0,0,.533-.24l.779-1.35a.5.5,0,0,0-.059-.582l-1.169-1.318a.5.5,0,0,1-.115-.437,7.069,7.069,0,0,0,0-2.976.5.5,0,0,1,.115-.437l1.169-1.318a.5.5,0,0,0,.059-.582L19.4,6.825a.5.5,0,0,0-.533-.24l-1.728.354a.5.5,0,0,1-.437-.12,6.992,6.992,0,0,0-2.575-1.488ZM12,16a4,4,0,1,1,4-4A4,4,0,0,1,12,16Zm0-1a3,3,0,1,0-3-3A3,3,0,0,0,12,15Z" transform="translate(37.251 540)" fill="#1c1c1c"/>
  </g>
</svg>
