<svg xmlns="http://www.w3.org/2000/svg" width="26" height="26" viewBox="0 0 26 26">
  <g id="Group_16566" data-name="Group 16566" transform="translate(-36 -306)">
    <rect id="Rectangle_17352" data-name="Rectangle 17352" width="26" height="26" transform="translate(36 306)" fill="#fff"/>
    <path id="user" d="M16.809,14.338l4,1.817A2.891,2.891,0,0,1,22.5,18.786v.823A2.891,2.891,0,0,1,19.609,22.5H6.891A2.891,2.891,0,0,1,4,19.609v-.823a2.891,2.891,0,0,1,1.694-2.632l4-1.817a5.781,5.781,0,1,1,7.118,0Zm-5.916.724-4.72,2.145a1.734,1.734,0,0,0-1.017,1.579v.823a1.734,1.734,0,0,0,1.734,1.734H19.609a1.734,1.734,0,0,0,1.734-1.734v-.823a1.734,1.734,0,0,0-1.017-1.579l-4.72-2.145a5.8,5.8,0,0,1-4.715,0Zm2.357-.655A4.625,4.625,0,1,0,8.625,9.781,4.625,4.625,0,0,0,13.25,14.406Z" transform="translate(36 306)" fill="#1c1c1c"/>
  </g>
</svg>
