<svg xmlns="http://www.w3.org/2000/svg" xmlns:xlink="http://www.w3.org/1999/xlink" width="26" height="26" viewBox="0 0 26 26">
  <defs>
    <clipPath id="clip-path">
      <rect id="Rectangle_17366" data-name="Rectangle 17366" width="22.732" height="15.624" fill="#1c1c1c" stroke="#1c1c1c" stroke-width="0.2"/>
    </clipPath>
  </defs>
  <g id="Group_16570" data-name="Group 16570" transform="translate(-36 -365)">
    <rect id="Rectangle_17353" data-name="Rectangle 17353" width="26" height="26" transform="translate(36 365)" fill="#fff"/>
    <g id="Group_16572" data-name="Group 16572" transform="translate(38 370)">
      <g id="Group_16572-2" data-name="Group 16572" clip-path="url(#clip-path)">
        <path id="Path_2416" data-name="Path 2416" d="M17.757,13.853H4.977c0,.2,0,.407,0,.611a1.072,1.072,0,0,1-1.162,1.159q-1.331,0-2.662,0A1.068,1.068,0,0,1,.006,14.471c0-1.966-.016-3.932.006-5.9A3.435,3.435,0,0,1,1.3,5.9c.41-.347.837-.674,1.295-1.041-.416-.085-.787-.16-1.158-.238-.276-.057-.362-.161-.364-.439,0-.31,0-.621,0-.931a.361.361,0,0,1,.409-.409q.832-.005,1.664,0a.363.363,0,0,1,.411.408c0,.16,0,.32,0,.479l.063.026c.17-.279.358-.549.5-.839.223-.441.406-.9.625-1.345A2.6,2.6,0,0,1,7.182.013q4.182-.03,8.363,0a2.606,2.606,0,0,1,2.439,1.557c.3.6.585,1.208.886,1.808a1.162,1.162,0,0,0,.307.36c0-.159,0-.317,0-.476,0-.278.132-.412.405-.414q.832-.006,1.664,0c.287,0,.413.133.416.426q0,.466,0,.931a.363.363,0,0,1-.336.419c-.375.081-.752.154-1.128.231l-.067.069a.625.625,0,0,1,.159.065c.372.292.746.582,1.109.886a3.5,3.5,0,0,1,1.325,2.763c.013,1.929,0,3.858,0,5.788a1.078,1.078,0,0,1-1.189,1.2q-1.32,0-2.64,0a1.068,1.068,0,0,1-1.143-1.133c0-.205,0-.411,0-.636m4.233-5.737a1.474,1.474,0,0,1-1.046.409c-.917,0-1.834.006-2.751-.007a.72.72,0,0,1-.389-.162,4.073,4.073,0,0,1-.419-.433c-.1.124-.179.213-.249.307a.79.79,0,0,1-.716.3c-1.213-.014-2.426,0-3.638-.009a.432.432,0,0,0-.347.144c-.244.257-.5.505-.751.754-.232.228-.4.23-.628.005-.258-.254-.506-.519-.773-.763a.531.531,0,0,0-.323-.132q-1.9-.014-3.794,0a.568.568,0,0,1-.469-.2c-.11-.127-.228-.247-.376-.407-.121.141-.216.244-.3.354a.681.681,0,0,1-.6.252c-.769-.013-1.538-.011-2.307,0A1.713,1.713,0,0,1,.746,8.11V9.589c.573,0,1.148-.007,1.724,0a2.191,2.191,0,0,1,1.451.575.351.351,0,0,1,.045.513.342.342,0,0,1-.5.028,2.1,2.1,0,0,0-1.687-.393c0,.073,0,.138,0,.2,0,.576.264.847.834.848.3,0,.592,0,.887,0,.248,0,.4.137.407.345s-.155.362-.41.364c-.348,0-.7.007-1.043,0a1.419,1.419,0,0,1-1.385-1.394c0-.123,0-.245,0-.367H.717c0,.578,0,1.145,0,1.712a1.064,1.064,0,0,0,1.116,1.115c.466,0,.932,0,1.4,0A3,3,0,0,0,4.284,13.1c.3-.121.506-.461.753-.7a2.274,2.274,0,0,1,1.656-.679q4.581,0,9.162,0a2.288,2.288,0,0,1,1.69.7c.2.2.4.414.615.608a.407.407,0,0,0,.247.1c.85.007,1.7.01,2.551,0a1.054,1.054,0,0,0,1.058-1.06c.007-.554,0-1.109,0-1.663a.612.612,0,0,0-.017-.1h-.336c0,.119,0,.228,0,.336a1.42,1.42,0,0,1-1.422,1.427q-.51.007-1.02,0a.356.356,0,1,1,0-.708,8.528,8.528,0,0,1,.865,0c.559.049,1-.358.82-1.119-.39.058-.792.095-1.181.187a1.806,1.806,0,0,0-.487.3.35.35,0,0,1-.478-.063.329.329,0,0,1,.016-.463,1.523,1.523,0,0,1,.31-.249,2.32,2.32,0,0,1,1.28-.37c.544.008,1.089,0,1.624,0ZM20.1,5.784c-.012-.032-.014-.049-.023-.056a7.541,7.541,0,0,1-1.4-1.385.3.3,0,0,0-.211-.074q-7.1-.005-14.2,0a.4.4,0,0,0-.253.125c-.245.256-.466.536-.716.786-.206.206-.44.383-.683.591.474.191.916.4,1.377.547a4.1,4.1,0,0,1,2.054,1.35.394.394,0,0,0,.346.146c1.265-.005,2.53,0,3.794-.006A.568.568,0,0,1,10.638,8c.231.247.47.486.735.758.239-.25.46-.467.663-.7a.7.7,0,0,1,.583-.248c1.183.01,2.367-.005,3.55.012a.732.732,0,0,0,.649-.278,3.482,3.482,0,0,1,1.7-1.133c.537-.176,1.054-.415,1.58-.626M18.112,3.543c-.264-.575-.508-1.143-.784-1.7A1.891,1.891,0,0,0,15.558.723C12.763.71,9.969.714,7.174.72a1.825,1.825,0,0,0-1.634.9c-.359.6-.616,1.268-.925,1.921ZM5.34,13.118H17.217a1.768,1.768,0,0,0-1.483-.694q-4.468.016-8.936,0a1.751,1.751,0,0,0-1.458.694m16.675.372a2.222,2.222,0,0,1-1.458.361c-.62-.013-1.24,0-1.86,0-.071,0-.143.006-.228.011,0,.243-.007.471,0,.7a.338.338,0,0,0,.352.351q1.417.009,2.834,0a.325.325,0,0,0,.353-.325c.016-.35,0-.7,0-1.094m-21.3-.007c0,.393-.006.733,0,1.072a.336.336,0,0,0,.349.353c.945.006,1.89,0,2.835,0a.323.323,0,0,0,.351-.3c.022-.246.005-.5.005-.76-.7,0-1.378-.009-2.055,0a2.211,2.211,0,0,1-1.488-.368m4.1-6.034a.438.438,0,0,0-.07-.051c-.89-.357-1.779-.716-2.672-1.066a.242.242,0,0,0-.213.039,9.3,9.3,0,0,0-.677.751.393.393,0,0,0-.019.322.592.592,0,0,0,.622.369c.783,0,1.567-.018,2.35.01a.737.737,0,0,0,.68-.374m13.115-.024-.024.093c.168.1.334.277.505.283.841.03,1.684.017,2.527.009a.946.946,0,0,0,.383-.085.434.434,0,0,0,.184-.688c-.179-.232-.4-.435-.6-.649a.235.235,0,0,0-.3-.043c-.676.277-1.355.544-2.033.816-.217.087-.433.176-.649.264M19.9,4.185l1.041-.208v-.4H19.9Zm-18.1-.21,1.038.2V3.574H1.793Z" transform="translate(0 0.001)" fill="#1c1c1c" stroke="#1c1c1c" stroke-width="0.2"/>
      </g>
    </g>
  </g>
</svg>
