<svg xmlns="http://www.w3.org/2000/svg" width="26" height="26" viewBox="0 0 26 26">
  <g id="Group_16567" data-name="Group 16567" transform="translate(-36 -423)">
    <rect id="Rectangle_17354" data-name="Rectangle 17354" width="26" height="26" transform="translate(36 423)" fill="#fff"/>
    <path id="password" d="M17.337,19.444A2.57,2.57,0,0,1,14.819,21.5H5.569A2.569,2.569,0,0,1,3,18.931V11.736A2.57,2.57,0,0,1,5.056,9.218V8.139a5.139,5.139,0,1,1,10.278,0V9.218a2.57,2.57,0,0,1,2.056,2.518v1.542h1.542A2.569,2.569,0,0,1,21.5,15.847v1.028a2.569,2.569,0,0,1-2.569,2.569Zm-1.064,0H11.736a2.569,2.569,0,0,1-2.569-2.569V15.847a2.569,2.569,0,0,1,2.569-2.569h4.625V11.736A1.542,1.542,0,0,0,14.938,10.2a.518.518,0,0,1-.255,0H5.569a1.542,1.542,0,0,0-1.542,1.542v7.194a1.542,1.542,0,0,0,1.542,1.542h9.25a1.542,1.542,0,0,0,1.454-1.028ZM6.083,9.167h8.222V8.139a4.111,4.111,0,1,0-8.222,0Zm14.389,7.708V15.847a1.542,1.542,0,0,0-1.542-1.542H11.736a1.542,1.542,0,0,0-1.542,1.542v1.028a1.542,1.542,0,0,0,1.542,1.542h7.194A1.542,1.542,0,0,0,20.472,16.875Zm-8.736-1.542h1.028a.514.514,0,0,1,.514.514v1.028a.514.514,0,0,1-.514.514H11.736a.514.514,0,0,1-.514-.514V15.847A.514.514,0,0,1,11.736,15.333Zm3.083,0h1.028a.514.514,0,0,1,.514.514v1.028a.514.514,0,0,1-.514.514H14.819a.514.514,0,0,1-.514-.514V15.847A.514.514,0,0,1,14.819,15.333Zm3.083,0h1.028a.514.514,0,0,1,.514.514v1.028a.514.514,0,0,1-.514.514H17.9a.514.514,0,0,1-.514-.514V15.847A.514.514,0,0,1,17.9,15.333Z" transform="translate(37 424)" fill="#1c1c1c"/>
  </g>
</svg>
