<svg id="Group_16542" data-name="Group 16542" xmlns="http://www.w3.org/2000/svg" xmlns:xlink="http://www.w3.org/1999/xlink" width="50.618" height="50.767" viewBox="0 0 50.618 50.767">
  <defs>
    <clipPath id="clip-path">
      <rect id="Rectangle_17299" data-name="Rectangle 17299" width="50.618" height="50.767" fill="none"/>
    </clipPath>
  </defs>
  <g id="Group_16541" data-name="Group 16541" clip-path="url(#clip-path)">
    <path id="Path_2348" data-name="Path 2348" d="M86.386,210.842a5.153,5.153,0,0,0,.249.538c.7,1.164,1.47,2.3,2.108,3.494a6.981,6.981,0,0,1,.723,3.36c-.013,2.524-.015,5.048-.021,7.572H45.633c-.256,0-.512-.005-.769-.008q.047-4.192.093-8.384a11.973,11.973,0,0,1,1.769-5.845c.63-1.11,1.219-2.243,1.826-3.365.221-.009.442-.025.664-.025l34.205,0h1.223l.715,1.127,1.027,1.54M76.195,216.9l-.064-.164a86.85,86.85,0,0,1-21.192-.006c.069.212.091.31.132.4.608,1.316,1.209,2.635,1.843,3.939a.745.745,0,0,0,.5.316c.351.053.716.007,1.074.028,2.225.129,4.449.318,6.676.38,1.357.038,2.72-.111,4.08-.183a26.325,26.325,0,0,1,3.514-.164c1.166.1,1.6-.449,1.969-1.4.414-1.077.97-2.1,1.464-3.146m1.1,3.664.12.15,2.422-.338c1.519-.212,3.038-.422,4.556-.639a1.6,1.6,0,0,0,1.378-1,3.092,3.092,0,0,0,.033-2.2.877.877,0,0,0-.977-.651c-1.461.123-2.922.241-4.379.4a1.029,1.029,0,0,0-.685.361c-.846,1.292-1.65,2.612-2.467,3.923m-23.564.142.124-.127c-.852-1.347-1.694-2.7-2.568-4.032a.854.854,0,0,0-.575-.267c-1.356-.139-2.716-.246-4.074-.373-.917-.086-1.275.138-1.428,1.042-.222,1.318.078,2.736,1.954,2.853,1.305.082,2.6.357,3.9.541.889.126,1.779.243,2.669.363" transform="translate(-40.263 -186.828)" fill="#4e96cf"/>
    <path id="Path_2349" data-name="Path 2349" d="M44.729,380.029c.256,0,.512.008.768.008H89.31q0,1.379,0,2.758l-.681,1.661c-.44.029-.881.084-1.321.085q-18.682.007-37.364,0a5.767,5.767,0,0,1-1.268-.118A4.519,4.519,0,0,1,44.89,380.8c-.049-.228-.117-.452-.176-.678q.007-.047.015-.094" transform="translate(-40.129 -341.059)" fill="#296cb1"/>
    <path id="Path_2350" data-name="Path 2350" d="M17.078,380.942c.059.226.128.45.177.678a4.519,4.519,0,0,0,3.783,3.623,5.76,5.76,0,0,0,1.268.118q18.682.009,37.364,0c.44,0,.881-.055,1.321-.085a4.27,4.27,0,0,1-2.613,2.04,10.1,10.1,0,0,1-3.177.317c-.171-.005-.341-.015-.512-.015H20.9c-.171,0-.341.009-.512.014-.527-.005-1.058.021-1.582-.022a5.5,5.5,0,0,1-3.628-1.522,5.074,5.074,0,0,1-1.251-2.565q0-1.282-.01-2.564l3.158-.018" transform="translate(-12.493 -341.879)" fill="#547580"/>
    <path id="Path_2351" data-name="Path 2351" d="M16.979,143.495l-3.158.018c0-2.676-.029-5.352.008-8.027a7.683,7.683,0,0,1,1.19-3.967c.635-1.028,1.3-2.04,1.946-3.059l.951-1.563a4.314,4.314,0,0,0,.509-.723c.689-1.578,1.4-3.148,2.016-4.755a6.319,6.319,0,0,1,5.553-4.256,84.982,84.982,0,0,1,16.148-.666c2.789.167,5.576.489,8.343.884a5.17,5.17,0,0,1,4.025,3.086c.82,1.74,1.515,3.539,2.265,5.312H55.552l-.417-1.026c-.629-1.45-1.167-2.948-1.915-4.334a4.08,4.08,0,0,0-3.062-2.02,62.77,62.77,0,0,0-9.727-.89c-3.089-.034-6.181.1-9.271.2-.9.029-1.792.193-2.688.3-.963.116-1.929.218-2.89.353a4.792,4.792,0,0,0-3.988,3.177c-.488,1.2-1.009,2.385-1.514,3.577-.084.2-.158.4-.256.655l.857.047c-.607,1.123-1.2,2.256-1.826,3.365a11.974,11.974,0,0,0-1.769,5.845q-.041,4.192-.092,8.384-.009.047-.015.094" transform="translate(-12.394 -104.431)" fill="#4e96cf"/>
    <path id="Path_2352" data-name="Path 2352" d="M13.88,406.122a5.073,5.073,0,0,0,1.251,2.565,5.5,5.5,0,0,0,3.628,1.522c.524.043,1.055.017,1.582.022,0,1.245,0,2.49-.005,3.734-.006.874-.413,1.271-1.3,1.273-1.331,0-2.661.008-3.992,0a1.089,1.089,0,0,1-1.181-1.135c-.007-2.659.007-5.319.014-7.978" transform="translate(-12.443 -364.476)" fill="#384149"/>
    <path id="Path_2353" data-name="Path 2353" d="M300.288,0a4.856,4.856,0,0,0,3.773,3.8,4.868,4.868,0,0,0-3.772,3.8,4.882,4.882,0,0,0-3.78-3.808A4.837,4.837,0,0,0,300.288,0" transform="translate(-266.104 -0.001)" fill="#55bbf2"/>
    <path id="Path_2354" data-name="Path 2354" d="M5.523,197.889l-.951,1.564c-1.214-.276-2.428-.546-3.64-.831-.709-.167-.96-.582-.93-1.478a1.1,1.1,0,0,1,1.016-1.2c.856-.157,1.713-.3,2.57-.455a.958.958,0,0,1,1.131.577c.28.6.537,1.214.8,1.821" transform="translate(0 -175.424)" fill="#296cb1"/>
    <path id="Path_2355" data-name="Path 2355" d="M440.789,199.56l-1.027-1.54c.257-.592.5-1.19.774-1.775a.975.975,0,0,1,1.2-.615c.856.143,1.713.287,2.567.443a1.1,1.1,0,0,1,.979,1.176c.035.866-.2,1.315-.862,1.479-1.205.3-2.42.557-3.631.832" transform="translate(-394.667 -175.546)" fill="#296cb1"/>
    <path id="Path_2356" data-name="Path 2356" d="M436.235,12.221a3.674,3.674,0,0,0,2.852-2.833,3.556,3.556,0,0,0,2.829,2.756,8.829,8.829,0,0,0-1.786,1.1,8.989,8.989,0,0,0-1.1,1.79,3.527,3.527,0,0,0-2.79-2.814" transform="translate(-391.501 -8.425)" fill="#55bbf2"/>
    <path id="Path_2357" data-name="Path 2357" d="M391.808,61.514a3.664,3.664,0,0,0-2.822,2.842,3.767,3.767,0,0,0-2.889-2.845,3.641,3.641,0,0,0,2.874-2.869,3.7,3.7,0,0,0,2.838,2.872" transform="translate(-346.504 -52.629)" fill="#55bbf2"/>
    <path id="Path_2358" data-name="Path 2358" d="M164.364,291.731c-.494,1.046-1.05,2.069-1.464,3.146-.366.95-.8,1.5-1.969,1.4a26.32,26.32,0,0,0-3.514.164c-1.36.072-2.723.221-4.08.183-2.227-.062-4.45-.251-6.676-.38-.358-.021-.722.025-1.074-.028a.744.744,0,0,1-.5-.316c-.633-1.3-1.234-2.623-1.843-3.939-.041-.089-.063-.188-.132-.4a86.843,86.843,0,0,0,21.192.006l.064.164" transform="translate(-128.433 -261.663)" fill="#296cb1"/>
    <path id="Path_2359" data-name="Path 2359" d="M73.324,140.111l-.857-.047c.1-.251.171-.455.256-.655.5-1.193,1.026-2.378,1.514-3.577a4.792,4.792,0,0,1,3.988-3.177c.961-.135,1.926-.236,2.89-.353-.116.168-.235.335-.347.506a4.048,4.048,0,0,0,.518,4.971,4.655,4.655,0,0,0,3.438,1.272q11.527.017,23.054.006l.417,1.026-34.205,0c-.221,0-.442.016-.664.025" transform="translate(-65.036 -118.736)" fill="#c0ebfa"/>
    <path id="Path_2360" data-name="Path 2360" d="M361.172,287.953c.818-1.311,1.621-2.631,2.467-3.923a1.029,1.029,0,0,1,.685-.361c1.457-.155,2.919-.273,4.38-.4a.877.877,0,0,1,.977.651,3.092,3.092,0,0,1-.033,2.2,1.6,1.6,0,0,1-1.378,1c-1.518.217-3.037.427-4.556.639l-2.422.338-.121-.15" transform="translate(-324.136 -254.221)" fill="#def7fe"/>
    <path id="Path_2361" data-name="Path 2361" d="M56.263,288.181c-.89-.121-1.78-.238-2.669-.363-1.3-.184-2.592-.459-3.9-.541-1.876-.118-2.176-1.535-1.954-2.853.153-.9.511-1.128,1.428-1.042,1.358.127,2.718.234,4.074.373a.854.854,0,0,1,.575.267c.874,1.332,1.716,2.686,2.568,4.032l-.124.127" transform="translate(-42.79 -254.307)" fill="#def7fe"/>
    <path id="Path_2362" data-name="Path 2362" d="M174.985,134.716q-11.527,0-23.054-.006a4.655,4.655,0,0,1-3.438-1.272,4.048,4.048,0,0,1-.518-4.971c.112-.171.231-.337.347-.506.9-.1,1.79-.267,2.688-.3,3.09-.1,6.182-.23,9.271-.2a62.769,62.769,0,0,1,9.727.89,4.08,4.08,0,0,1,3.061,2.02c.748,1.386,1.286,2.884,1.915,4.334" transform="translate(-132.244 -114.394)" fill="#def7fe"/>
    <path id="Path_2363" data-name="Path 2363" d="M416.48,411.037a10.106,10.106,0,0,0,3.177-.317,4.27,4.27,0,0,0,2.613-2.04l.681-1.661c0,2.627.018,5.254.009,7.88a1.09,1.09,0,0,1-1.178,1.141q-2.048.017-4.1,0a1.1,1.1,0,0,1-1.2-1.217c-.012-1.262,0-2.525-.006-3.787" transform="translate(-373.771 -365.281)" fill="#384149"/>
  </g>
</svg>
