<svg id="Group_16538" data-name="Group 16538" xmlns="http://www.w3.org/2000/svg" xmlns:xlink="http://www.w3.org/1999/xlink" width="60.768" height="48.405" viewBox="0 0 60.768 48.405">
  <defs>
    <clipPath id="clip-path">
      <rect id="Rectangle_17297" data-name="Rectangle 17297" width="60.768" height="48.405" fill="none"/>
    </clipPath>
  </defs>
  <g id="Group_16537" data-name="Group 16537" clip-path="url(#clip-path)">
    <path id="Path_2307" data-name="Path 2307" d="M21.365,182.084c-.613.007-1.225.019-1.838.019q-8.75,0-17.5,0A1.867,1.867,0,0,1,0,180.081q0-13.162,0-26.325a1.862,1.862,0,0,1,2.024-2.022l13.168-.02,6.168.039A2.139,2.139,0,0,1,22.8,154q-.033,12.912,0,25.824a2.144,2.144,0,0,1-1.437,2.255m-5.244-24.637c.006.355.035.711.014,1.065a4.594,4.594,0,0,1-2.66,4.11,4.485,4.485,0,0,1-4.868-.428,4.883,4.883,0,0,1-1.938-4.746,2.12,2.12,0,0,0,1.246-2.189,2.362,2.362,0,0,0-2.193-1.973A2.33,2.33,0,0,0,3.5,155.206a2.067,2.067,0,0,0,1.231,2.241c.009.375.017.749.026,1.124a6.644,6.644,0,0,0,12.579,2.787,8.348,8.348,0,0,0,.731-3.911,2.12,2.12,0,0,0,1.246-2.189,2.362,2.362,0,0,0-2.193-1.973,2.33,2.33,0,0,0-2.227,1.921,2.067,2.067,0,0,0,1.231,2.241" transform="translate(0 -133.706)" fill="#4e96cf"/>
    <path id="Path_2308" data-name="Path 2308" d="M241.114,119.758a16.894,16.894,0,0,1,11.057,4.083A16.721,16.721,0,0,1,258.1,135.09a17.081,17.081,0,0,1-13.182,18.425,21.344,21.344,0,0,1-5.6.407l-4.142-1.019c-1.447-.8-2.964-1.5-4.325-2.422a16.455,16.455,0,0,1-4.915-5.686c-.043-.109-.08-.221-.131-.327a17.077,17.077,0,0,1-1.565-10.347,19.31,19.31,0,0,1,1.7-5.2,18.649,18.649,0,0,1,4.277-5.224,19.042,19.042,0,0,1,5.2-2.982,19.779,19.779,0,0,1,5.7-.957m-9.49,16.84.014,1.811c-.006,2.585-.021,5.17-.014,7.755a1.775,1.775,0,0,0,1.459,1.707,23.408,23.408,0,0,0,2.354.053h1.857l2.507-.035q4.327.009,8.654.018a1.907,1.907,0,0,0,2.153-2.149q0-4.266,0-8.532v-.707c.284,0,.5,0,.707,0,.871-.011,1.185-.317,1.191-1.171q.007-1.185,0-2.37c-.006-.826-.369-1.19-1.194-1.2-.77-.013-1.541-.018-2.311-.027.108-.045.215-.093.324-.135a3.349,3.349,0,0,0,2.22-3.477,3.274,3.274,0,0,0-2.936-2.946,5,5,0,0,0-3.566.814,43.243,43.243,0,0,0-3.338,2.9c-.2.177-.391.366-.621.584-.772-.78-1.5-1.507-2.216-2.237a6.722,6.722,0,0,0-4.572-2.1,3.241,3.241,0,0,0-3.147,1.616,3.175,3.175,0,0,0,.009,3.428,3.69,3.69,0,0,0,2.03,1.54c-.805.008-1.611,0-2.416.028a.963.963,0,0,0-1.052,1.071q-.012,1.326,0,2.652c0,.66.257.929.941,1.032l.045.033.054-.008.863.049" transform="translate(-197.434 -105.543)" fill="#fd6e91"/>
    <path id="Path_2309" data-name="Path 2309" d="M150.789,78.428a19.039,19.039,0,0,0-5.2,2.982,18.653,18.653,0,0,0-4.277,5.224c-.006-1.144,0-2.288-.021-3.432a1.854,1.854,0,0,0-1.853-1.911c-1.756-.017-3.513.006-5.269.012L128,81.264q0-3.759,0-7.519a1.838,1.838,0,0,1,1.96-1.952c.928,0,1.856.007,2.783.01q0,.946-.01,1.891a2.629,2.629,0,0,0-.6.335,2.214,2.214,0,1,0,3.134,3.128,2.1,2.1,0,0,0-.606-3.463q0-.945-.01-1.891l1.888-.028h1.915l5.686.028q0,.945-.01,1.891a2.628,2.628,0,0,0-.6.335,2.214,2.214,0,1,0,3.134,3.128,2.1,2.1,0,0,0-.606-3.463q0-.945-.009-1.891l1.888-.028,1.438.036a2.107,2.107,0,0,1,1.43,2.248c-.045,1.455-.009,2.912-.009,4.367" transform="translate(-112.804 -63.257)" fill="#555a6e"/>
    <path id="Path_2310" data-name="Path 2310" d="M179.969,151.9c1.756-.006,3.513-.029,5.269-.012a1.854,1.854,0,0,1,1.853,1.911c.017,1.144.015,2.288.021,3.432a19.309,19.309,0,0,0-1.7,5.2,17.077,17.077,0,0,0,1.565,10.347c.051.105.088.218.131.327-.006,2.289-.042,4.579-.006,6.868a2.144,2.144,0,0,1-1.437,2.259h-5.7a2.144,2.144,0,0,0,1.437-2.255q-.033-12.912,0-25.824a2.14,2.14,0,0,0-1.44-2.252" transform="translate(-158.608 -133.858)" fill="#296cb1"/>
    <path id="Path_2311" data-name="Path 2311" d="M179.287,10.478q0-.945.01-1.891c0-.572-.013-1.144.007-1.715a4.7,4.7,0,0,0-.962-3.038A3.162,3.162,0,0,0,176.325,2.4a2.953,2.953,0,0,0-2.846-.237l-.113.012.006,0a1.516,1.516,0,0,0-.408.038,4.473,4.473,0,0,0-3.014,3.436,19.97,19.97,0,0,0-.143,2.939q0,.946.009,1.891c0,.592,0,1.185-.015,1.777a.953.953,0,1,1-1.894,0c-.013-.592-.011-1.185-.015-1.777q0-.945.01-1.891a27.764,27.764,0,0,1,.142-3.119A6.6,6.6,0,0,1,173.307.147a9.2,9.2,0,0,1,3.275.132c.152.082.313.151.456.247.757.507,1.509,1.021,2.263,1.533l.243.109,0-.006a1.285,1.285,0,0,0,.138.315A5.455,5.455,0,0,1,181,5.25c.132,1.1.137,2.224.2,3.337q0,.946.009,1.891c0,.592,0,1.185-.015,1.777a.953.953,0,1,1-1.895,0c-.013-.592-.011-1.185-.015-1.777" transform="translate(-147.964 -0.04)" fill="#d6e5ef"/>
    <path id="Path_2312" data-name="Path 2312" d="M228.005,339.819a2.144,2.144,0,0,0,1.437-2.259c-.036-2.289,0-4.578.006-6.868a16.455,16.455,0,0,0,4.915,5.686c1.361.926,2.878,1.623,4.325,2.422l-1.181,1.018h-9.5" transform="translate(-200.942 -291.441)" fill="#555a6e"/>
    <path id="Path_2313" data-name="Path 2313" d="M309.466,78.421c0-1.456-.036-2.913.009-4.368a2.107,2.107,0,0,0-1.43-2.248l.477-.037q2.283.009,4.566.018a1.915,1.915,0,0,1,2.073,2.062c.005,1.205,0,2.411,0,3.616a19.783,19.783,0,0,0-5.7.957" transform="translate(-271.482 -63.249)" fill="#483c4c"/>
    <path id="Path_2314" data-name="Path 2314" d="M249.526,8.518l-.477.037-1.438-.036c0-.474-.009-.949.011-1.422a4.93,4.93,0,0,0-.69-2.892,4.131,4.131,0,0,0-2.872-2.083l0,.006-.243-.109c-.754-.512-1.507-1.026-2.263-1.533-.143-.1-.3-.166-.456-.247a6.647,6.647,0,0,1,8.414,6.388c0,.63.005,1.261.008,1.891" transform="translate(-212.486 0)" fill="#a4c1da"/>
    <path id="Path_2315" data-name="Path 2315" d="M308.053,400.023,309.234,399l4.142,1.019h-5.323" transform="translate(-271.489 -351.644)" fill="#483c4c"/>
    <path id="Path_2316" data-name="Path 2316" d="M53.157,178.753a8.348,8.348,0,0,1-.731,3.911,6.644,6.644,0,0,1-12.579-2.787c-.01-.375-.018-.749-.026-1.124.007-.611.007-1.222.024-1.833a.95.95,0,1,1,1.894,0c.018.611.017,1.222.024,1.833A4.883,4.883,0,0,0,43.7,183.5a4.485,4.485,0,0,0,4.868.428,4.594,4.594,0,0,0,2.66-4.11c.021-.353-.008-.71-.014-1.065.007-.611.007-1.222.024-1.833a.95.95,0,1,1,1.894,0c.018.611.017,1.222.024,1.833" transform="translate(-35.094 -155.012)" fill="#d6e5ef"/>
    <path id="Path_2317" data-name="Path 2317" d="M128.344,169.108c-.007-.611-.007-1.222-.024-1.833a.95.95,0,1,0-1.894,0c-.017.611-.017,1.222-.024,1.833a2.067,2.067,0,0,1-1.231-2.241,2.33,2.33,0,0,1,2.227-1.921,2.362,2.362,0,0,1,2.193,1.973,2.12,2.12,0,0,1-1.246,2.189" transform="translate(-110.281 -145.367)" fill="#296cb1"/>
    <path id="Path_2318" data-name="Path 2318" d="M32.344,169.108c-.007-.611-.007-1.222-.024-1.833a.95.95,0,1,0-1.894,0c-.017.611-.017,1.222-.024,1.833a2.067,2.067,0,0,1-1.231-2.241,2.33,2.33,0,0,1,2.227-1.921,2.362,2.362,0,0,1,2.193,1.973,2.12,2.12,0,0,1-1.246,2.189" transform="translate(-25.676 -145.367)" fill="#296cb1"/>
    <path id="Path_2319" data-name="Path 2319" d="M347.459,220.778c.77.009,1.541.014,2.311.027.825.014,1.188.378,1.194,1.2q.009,1.185,0,2.37c-.005.854-.32,1.16-1.191,1.171-.211,0-.423,0-.707,0v.707q0,4.266,0,8.532a1.907,1.907,0,0,1-2.153,2.149q-4.327,0-8.654-.018a2.134,2.134,0,0,0,1.308-1.824c.009-2.387,0-4.775.01-7.162,0-.395-.146-.51-.522-.505-1.085.015-2.171,0-3.257,0l-.057.008q0-.94.006-1.88c1.239-.006,2.478-.006,3.717-.02a.933.933,0,0,0,1.053-1.054c.01-.845,0-1.691,0-2.536a1.024,1.024,0,0,0-.743-1.074c1.219-.012,2.439-.049,3.658-.026a.9.9,0,0,1,.877,1c.016.768.042,1.54-.009,2.3a9.39,9.39,0,0,1-.3,1.407c-.054,0,.023.008.1.009.355,0,.71.01,1.065,0a.955.955,0,0,0,1.049-1.074c.011-.709-.015-1.419.008-2.128a1.632,1.632,0,0,0-.653-1.58Z" transform="translate(-295.89 -194.573)" fill="#a4c1da"/>
    <path id="Path_2320" data-name="Path 2320" d="M298.214,171.742h-1.889a1.632,1.632,0,0,1,.653,1.58c-.023.709,0,1.419-.008,2.128a.955.955,0,0,1-1.049,1.073c-.355.012-.71,0-1.065,0-.077,0-.155-.014-.1-.009a9.39,9.39,0,0,0,.3-1.407c.051-.765.025-1.536.009-2.3a.9.9,0,0,0-.877-1c-1.219-.023-2.439.014-3.658.027l-4.487.017-1.814-.081-1.831-.036a3.688,3.688,0,0,1-2.03-1.54,3.175,3.175,0,0,1-.009-3.428,3.241,3.241,0,0,1,3.147-1.616,6.723,6.723,0,0,1,4.572,2.1c.72.73,1.443,1.458,2.216,2.237.231-.217.421-.406.621-.584a43.25,43.25,0,0,1,3.338-2.9,5,5,0,0,1,3.567-.814,3.274,3.274,0,0,1,2.936,2.946,3.349,3.349,0,0,1-2.22,3.477c-.109.042-.216.09-.324.135m-5.524-1.873c1.694,0,3.255,0,4.816-.005a1.375,1.375,0,0,0,.514-.115,1.4,1.4,0,0,0,.809-1.605,1.512,1.512,0,0,0-1.677-1.1c-1.963.117-3.182,1.394-4.462,2.825m-4.7-.016a9.522,9.522,0,0,0-2.716-2.321,6.951,6.951,0,0,0-1.939-.476,1.406,1.406,0,0,0-1.546,1.308,1.336,1.336,0,0,0,1.167,1.474c1.631.05,3.264.016,5.035.016" transform="translate(-246.646 -145.536)" fill="#483c4c"/>
    <path id="Path_2321" data-name="Path 2321" d="M291.851,286.316a23.54,23.54,0,0,1-2.354-.053,1.775,1.775,0,0,1-1.459-1.707c-.008-2.585.007-5.17.014-7.755l3.753-.013c.009.256.024.512.025.767q.013,4.38.022,8.76" transform="translate(-253.847 -243.935)" fill="#d6e5ef"/>
    <path id="Path_2322" data-name="Path 2322" d="M335.872,276.789c1.086,0,2.172.017,3.257,0,.376-.005.524.11.522.505-.014,2.387,0,4.775-.01,7.162a2.134,2.134,0,0,1-1.308,1.824l-2.507.034c.007-.493.018-.986.02-1.479q.015-4.024.027-8.048" transform="translate(-295.964 -243.936)" fill="#d6e5ef"/>
    <path id="Path_2323" data-name="Path 2323" d="M275.446,220.712l1.831.036a1.791,1.791,0,0,0-.562,1.594,18.825,18.825,0,0,1,0,1.951,1.241,1.241,0,0,0,.553,1.163c-.411.008-.823.009-1.234.024-.719.026-1.437.06-2.156.09l-.862-.049a.157.157,0,0,0-.1-.025c-.684-.1-.936-.372-.941-1.033q-.01-1.326,0-2.652a.964.964,0,0,1,1.052-1.071c.8-.024,1.611-.02,2.416-.028" transform="translate(-239.69 -194.515)" fill="#d6e5ef"/>
    <path id="Path_2324" data-name="Path 2324" d="M321.734,276.788q-.013,4.024-.027,8.048c0,.493-.013.986-.02,1.479H319.83q-.01-4.38-.022-8.76c0-.256-.016-.512-.025-.767l.057.008h1.837Z" transform="translate(-281.826 -243.935)" fill="#555a6e"/>
    <path id="Path_2325" data-name="Path 2325" d="M288.048,260.792c.719-.03,1.437-.064,2.156-.09.411-.015.823-.016,1.234-.024l.419.138q.008.891.015,1.782l-.057-.008-3.753.013q-.007-.906-.014-1.811" transform="translate(-253.858 -229.737)" fill="#a4c1da"/>
    <path id="Path_2326" data-name="Path 2326" d="M279.945,261.016a.157.157,0,0,1,.1.025l-.054.008Z" transform="translate(-246.717 -230.034)" fill="#a4c1da"/>
    <path id="Path_2327" data-name="Path 2327" d="M204.541,16.244a4.672,4.672,0,0,0-2.722,4.45c-.006.569,0,1.138.007,1.706h-1.915c0-.315.016-.63.007-.945a7.346,7.346,0,0,1,.519-3.466c.329-.684.764-1.318,1.151-1.974l-.006,0h.057l.056-.013a2.953,2.953,0,0,1,2.846.237" transform="translate(-176.18 -13.88)" fill="#a4c1da"/>
    <path id="Path_2328" data-name="Path 2328" d="M158.5,87.946c0,.592,0,1.185.015,1.777a.953.953,0,1,0,1.895,0c.013-.592.011-1.185.015-1.777a2.1,2.1,0,0,1,.606,3.463,2.214,2.214,0,1,1-3.134-3.128,2.627,2.627,0,0,1,.6-.335" transform="translate(-138.573 -77.507)" fill="#33293d"/>
    <path id="Path_2329" data-name="Path 2329" d="M254.5,87.946c0,.592,0,1.185.015,1.777a.953.953,0,1,0,1.895,0c.013-.592.011-1.185.015-1.777a2.1,2.1,0,0,1,.606,3.463,2.214,2.214,0,1,1-3.134-3.128,2.629,2.629,0,0,1,.6-.335" transform="translate(-223.178 -77.507)" fill="#33293d"/>
    <path id="Path_2330" data-name="Path 2330" d="M264.014,17.011l.243.109-.243-.109" transform="translate(-232.677 -14.992)" fill="#f7f9fa"/>
    <path id="Path_2331" data-name="Path 2331" d="M214.125,17.911l-.056.013h-.057l.113-.012" transform="translate(-188.61 -15.785)" fill="#f7f9fa"/>
    <path id="Path_2332" data-name="Path 2332" d="M328.384,221.57l4.487-.017a1.024,1.024,0,0,1,.743,1.074c-.005.845.007,1.691,0,2.536a.933.933,0,0,1-1.053,1.053c-1.239.014-2.478.014-3.717.02l-.336-.006a1.306,1.306,0,0,1-.6-1.26c.035-.688.034-1.381,0-2.07a1.605,1.605,0,0,1,.477-1.33" transform="translate(-288.983 -195.256)" fill="#d6e5ef"/>
    <path id="Path_2333" data-name="Path 2333" d="M321.658,260.959l.336.006q0,.94-.006,1.88h-1.837q-.007-.891-.015-1.782l1.522-.1" transform="translate(-282.137 -229.984)" fill="#483c4c"/>
    <path id="Path_2334" data-name="Path 2334" d="M387.922,184c1.28-1.431,2.5-2.708,4.462-2.825a1.512,1.512,0,0,1,1.677,1.1,1.4,1.4,0,0,1-.809,1.605,1.373,1.373,0,0,1-.514.115c-1.561.009-3.122.005-4.816.005" transform="translate(-341.878 -159.665)" fill="#fd6e91"/>
    <path id="Path_2335" data-name="Path 2335" d="M302.234,184.035c-1.771,0-3.4.034-5.035-.016a1.336,1.336,0,0,1-1.167-1.474,1.406,1.406,0,0,1,1.546-1.308,6.951,6.951,0,0,1,1.939.476,9.523,9.523,0,0,1,2.716,2.321" transform="translate(-260.891 -159.718)" fill="#fd6e91"/>
    <path id="Path_2336" data-name="Path 2336" d="M314.374,225.754l-1.522.1-.419-.138a1.241,1.241,0,0,1-.553-1.163,18.842,18.842,0,0,0,0-1.951,1.79,1.79,0,0,1,.562-1.594l1.815.081a1.605,1.605,0,0,0-.477,1.33c.034.689.035,1.382,0,2.07a1.306,1.306,0,0,0,.6,1.26" transform="translate(-274.853 -194.779)" fill="#555a6e"/>
    <path id="Path_2337" data-name="Path 2337" d="M406.442,260.969c.02-.005.039.018.038.048q-.009,4.79-.018,9.581c0,.59-.009,1.181-.014,1.771h-1.261q-.007-5.245-.015-10.49c0-.306-.011-.613-.017-.919l.032.008Z" transform="translate(-357.065 -229.984)" fill="#555a6e"/>
  </g>
</svg>
