<svg id="Group_16546" data-name="Group 16546" xmlns="http://www.w3.org/2000/svg" xmlns:xlink="http://www.w3.org/1999/xlink" width="49.263" height="49.352" viewBox="0 0 49.263 49.352">
  <defs>
    <clipPath id="clip-path">
      <rect id="Rectangle_17307" data-name="Rectangle 17307" width="49.263" height="49.351" fill="none"/>
    </clipPath>
  </defs>
  <g id="Group_16545" data-name="Group 16545" clip-path="url(#clip-path)">
    <path id="Path_2377" data-name="Path 2377" d="M209.932,4.3a13.73,13.73,0,0,1,7.3-3.983,14.678,14.678,0,0,1,17.515,11.161A14.25,14.25,0,0,1,231.142,24.9a2.262,2.262,0,0,1-.4.285c-.137.062-.278.116-.41.187-.824.444-1.62.952-2.474,1.327a14.048,14.048,0,0,1-9.187.85c-.94-.229-1.856-.56-2.783-.845l1.682-1.568a11.245,11.245,0,0,0,3.972.272,10.681,10.681,0,1,0-11.538-7.858l-1.587,1.693a33.04,33.04,0,0,1-1.055-4.036,16.375,16.375,0,0,1-.026-4.062,13.662,13.662,0,0,1,2.6-6.587c.04-.054,0-.169-.008-.256" transform="translate(-185.912 -0.001)" fill="#215a96"/>
    <path id="Path_2378" data-name="Path 2378" d="M225.038,350.025a19.081,19.081,0,0,1-3.114.53,7.384,7.384,0,0,1-.971-14.689,7.633,7.633,0,0,1,3.592.341c.161.054.328.088.493.132a1.366,1.366,0,0,0,.2.156,7.283,7.283,0,0,1,4.145,5.773,7.178,7.178,0,0,1-1.757,5.782,9.543,9.543,0,0,1-2.588,1.974m.331-6.051h1.581v-1.581H225.37Zm-8.233-.006h1.6V342.4h-1.6Zm5.7,2.539h-1.559V348.1h1.559Zm.018-8.224h-1.578v1.577h1.578Z" transform="translate(-192.57 -301.252)" fill="#da9d3a"/>
    <path id="Path_2379" data-name="Path 2379" d="M22.845,331.659a3.819,3.819,0,0,1,1.269-3.782c2.57-2.509,5.1-5.063,7.642-7.6l.138.252a3.675,3.675,0,0,0,.033.561,5.209,5.209,0,0,0,4.113,3.967,4.171,4.171,0,0,1,.573.19c-2.662,2.665-5.314,5.34-7.992,7.988a3.3,3.3,0,0,1-3.027.9,1.948,1.948,0,0,0-.351,0,4.255,4.255,0,0,1-2.4-2.484" transform="translate(-20.403 -287.339)" fill="#43525b"/>
    <path id="Path_2380" data-name="Path 2380" d="M315.7,349.951a9.542,9.542,0,0,0,2.588-1.974,7.178,7.178,0,0,0,1.757-5.782,7.283,7.283,0,0,0-4.145-5.773,1.369,1.369,0,0,1-.2-.156,7.22,7.22,0,0,1,5.163-.163,6.064,6.064,0,0,0,.694.141c.4.274.819.527,1.2.825A7.425,7.425,0,0,1,323,348.961c-.455.369-.961.677-1.444,1.013-.714.154-1.423.34-2.144.457a6.664,6.664,0,0,1-3.713-.48m6.109-6.053h1.561v-1.6h-1.561Z" transform="translate(-283.229 -301.179)" fill="#f4b84c"/>
    <path id="Path_2381" data-name="Path 2381" d="M372.647,349.786c.483-.336.988-.644,1.444-1.013a7.425,7.425,0,0,0-.242-11.892c-.383-.3-.8-.551-1.2-.825a7.371,7.371,0,0,1,9.932,8.239,7.083,7.083,0,0,1-4.968,5.651,6.744,6.744,0,0,1-4.964-.159m7.566-7.646h-1.56v1.578h1.56Z" transform="translate(-334.322 -300.991)" fill="#f8d061"/>
    <path id="Path_2382" data-name="Path 2382" d="M179.17,170.632l1.587-1.693.337-.194a3.3,3.3,0,0,0,.314.448c.548.562,1.109,1.111,1.662,1.668q1.854,1.871,3.7,3.747-2.927,2.944-5.852,5.889c-.155.156-.294.33-.44.5l-.1-.011c-.706-.719-1.405-1.443-2.119-2.154-1.21-1.205-2.429-2.4-3.644-3.6.854-.863,1.71-1.723,2.557-2.592a3.665,3.665,0,0,0,.344-.487,1.06,1.06,0,0,0,.3-.146c.455-.45.9-.91,1.345-1.367" transform="translate(-156.664 -151.39)" fill="#90979c"/>
    <path id="Path_2383" data-name="Path 2383" d="M110.52,266.2l-.138-.252a15.612,15.612,0,0,1,.188-1.664,4.683,4.683,0,0,1,1.227-2.259c.753-.786,1.541-1.539,2.314-2.306.137.151.268.309.412.453q2.635,2.651,5.274,5.3c-.475.491-.941.99-1.426,1.47a5.135,5.135,0,0,1-6.821.241c-.36-.307-.687-.654-1.029-.982" transform="translate(-99.03 -233.008)" fill="#90979c"/>
    <path id="Path_2384" data-name="Path 2384" d="M152.322,240.377q-2.638-2.648-5.274-5.3c-.144-.145-.275-.3-.412-.453l2.878-2.877c1.215,1.2,2.434,2.4,3.644,3.6.714.711,1.413,1.436,2.119,2.154l-2.868,2.873-.087,0" transform="translate(-131.555 -207.915)" fill="#2a6cb1"/>
    <path id="Path_2385" data-name="Path 2385" d="M121,315.638l.087,0,1.563,1.678c-.886.877-1.731,1.8-2.67,2.616A4.749,4.749,0,0,1,116.988,321a4.4,4.4,0,0,0-.544.09,4.189,4.189,0,0,0-.573-.19,5.208,5.208,0,0,1-4.113-3.967,3.675,3.675,0,0,1-.033-.561c.342.328.668.675,1.029.982a5.135,5.135,0,0,0,6.821-.241c.485-.48.951-.98,1.426-1.47" transform="translate(-100.234 -283.176)" fill="#69737a"/>
    <path id="Path_2386" data-name="Path 2386" d="M278.151,246.372c.927.284,1.842.616,2.783.845a14.048,14.048,0,0,0,9.187-.85c.854-.375,1.65-.883,2.474-1.327.132-.071.273-.125.41-.187a3.275,3.275,0,0,1-.4.508c-4.794,4.085-10.117,5-15.979,2.646l1.527-1.633" transform="translate(-248.174 -219.67)" fill="#1e4d82"/>
    <path id="Path_2387" data-name="Path 2387" d="M193.719,56.754c-.447.457-.89.918-1.345,1.367a1.059,1.059,0,0,1-.3.146,14.8,14.8,0,0,1,3-16.329,1.665,1.665,0,0,1,.157-.126c0,.087.048.2.008.256a13.664,13.664,0,0,0-2.6,6.587,16.378,16.378,0,0,0,.026,4.062,33.048,33.048,0,0,0,1.055,4.036" transform="translate(-171.212 -37.513)" fill="#1e4d82"/>
    <path id="Path_2388" data-name="Path 2388" d="M237.761,229.235l-1.527,1.633a3.264,3.264,0,0,0-.49.328c-.861.828-1.711,1.667-2.565,2.5l-1.575-1.564c.146-.166.284-.339.44-.5q2.924-2.947,5.852-5.889c.211.2.438.383.631.6.313.349.605.717.906,1.077l.011.243-1.682,1.568" transform="translate(-207.784 -202.533)" fill="#69737a"/>
    <path id="Path_2389" data-name="Path 2389" d="M2.442,430.935a4.255,4.255,0,0,0,2.4,2.484l-2.493,2.415L0,433.489l2.442-2.554" transform="translate(0 -386.615)" fill="#202125"/>
    <path id="Path_2390" data-name="Path 2390" d="M205.733,287.735l1.575,1.564-2.978,2.977-1.563-1.678,2.868-2.873.1.011" transform="translate(-181.913 -258.133)" fill="#215a96"/>
    <path id="Path_2391" data-name="Path 2391" d="M238.658,61.022l-.011-.243,1.359-1.359,1.5-1.358c.374-.028.75-.036,1.121-.089a7.4,7.4,0,1,0-8.6-7.4l-1.56,1.634-1.036,1.033-.337.194a10.674,10.674,0,1,1,11.538,7.858,11.243,11.243,0,0,1-3.972-.272" transform="translate(-206.999 -35.887)" fill="#c8cacc"/>
    <rect id="Rectangle_17301" data-name="Rectangle 17301" width="1.581" height="1.581" transform="translate(32.799 41.14)" fill="#e2e2e2"/>
    <rect id="Rectangle_17302" data-name="Rectangle 17302" width="1.599" height="1.57" transform="translate(24.566 41.146)" fill="#e2e2e2"/>
    <rect id="Rectangle_17303" data-name="Rectangle 17303" width="1.559" height="1.594" transform="translate(28.706 45.254)" fill="#e2e2e2"/>
    <rect id="Rectangle_17304" data-name="Rectangle 17304" width="1.561" height="1.595" transform="translate(38.577 41.125)" fill="#e2e2e2"/>
    <rect id="Rectangle_17305" data-name="Rectangle 17305" width="1.56" height="1.578" transform="translate(44.331 41.149)" fill="#e2e2e2"/>
    <path id="Path_2392" data-name="Path 2392" d="M246.132,165.913l-1.359,1.359c-.3-.36-.592-.728-.906-1.077-.193-.215-.42-.4-.631-.6q-1.852-1.874-3.7-3.747c-.552-.558-1.114-1.106-1.662-1.668a3.3,3.3,0,0,1-.314-.448l1.036-1.033a3.351,3.351,0,0,1,.447.319c.887.875,1.763,1.762,2.648,2.639.921.912,1.849,1.817,2.774,2.725.246.259.478.533.741.772.295.268.618.5.929.755" transform="translate(-213.124 -142.38)" fill="#43525b"/>
    <path id="Path_2393" data-name="Path 2393" d="M262.785,79.3a7.4,7.4,0,1,1,8.6,7.4c-.37.053-.747.06-1.121.089.636-.67,1.275-1.338,1.906-2.012a5.126,5.126,0,0,0,.482-6.177,3.554,3.554,0,0,0-.168-.316,5.223,5.223,0,0,0-7.407-1.1c-.815.644-1.531,1.412-2.293,2.123" transform="translate(-235.759 -64.608)" fill="#4e97cf"/>
    <path id="Path_2394" data-name="Path 2394" d="M249.185,114.986c.761-.711,1.478-1.479,2.293-2.123a5.223,5.223,0,0,1,7.407,1.1,3.543,3.543,0,0,1,.167.316,5.285,5.285,0,0,1-1.745,4.156c-.416.38-.8.791-1.2,1.193q-1.31,1.333-2.614,2.67c-.925-.908-1.853-1.813-2.774-2.725-.886-.877-1.761-1.764-2.648-2.639a3.355,3.355,0,0,0-.447-.319l1.56-1.634" transform="translate(-222.158 -100.298)" fill="#90979c"/>
    <path id="Path_2395" data-name="Path 2395" d="M304.694,144.008q1.307-1.336,2.614-2.67c.4-.4.782-.814,1.2-1.193a5.285,5.285,0,0,0,1.745-4.156,5.126,5.126,0,0,1-.482,6.177c-.632.674-1.27,1.341-1.906,2.012l-1.5,1.358c-.311-.25-.634-.487-.929-.755-.263-.24-.5-.514-.741-.772" transform="translate(-273.357 -122.002)" fill="#69737a"/>
    <rect id="Rectangle_17306" data-name="Rectangle 17306" width="1.578" height="1.577" transform="translate(28.705 37.031)" fill="#e2e2e2"/>
  </g>
</svg>
