<svg id="Group_16540" data-name="Group 16540" xmlns="http://www.w3.org/2000/svg" xmlns:xlink="http://www.w3.org/1999/xlink" width="59.249" height="49.352" viewBox="0 0 59.249 49.352">
  <defs>
    <clipPath id="clip-path">
      <rect id="Rectangle_17298" data-name="Rectangle 17298" width="59.249" height="49.352" fill="none"/>
    </clipPath>
  </defs>
  <g id="Group_16539" data-name="Group 16539" clip-path="url(#clip-path)">
    <path id="Path_2338" data-name="Path 2338" d="M113.9,145.832a5.714,5.714,0,0,1-4.606,1.983v11.835c-4.279,0-8.558.033-12.837-.022a55.273,55.273,0,0,1-5.825-.376,27.352,27.352,0,0,1-7.786-2.232,31.783,31.783,0,0,1-11.42-8.5,31.422,31.422,0,0,1-7.57-20.46c.164,0,.329-.014.493-.014H93.967c.185,0,.37.015.554.023l.108.1,0-.01a4.517,4.517,0,0,0,.135.6,27.794,27.794,0,0,1,1.716,9.938c-.006.691,0,1.383,0,2.132a4.644,4.644,0,0,0,.541-.162,28.521,28.521,0,0,1,10.185-2.637c.666-.039,1.327-.149,1.991-.226a4.084,4.084,0,0,1,.122.7c.009,2.239.015,4.478,0,6.716,0,.438.1.631.579.615,1.006-.033,2.014-.012,3.021-.01.332,0,.663.008,1,.013" transform="translate(-55.974 -112.231)" fill="#4e96cf"/>
    <path id="Path_2339" data-name="Path 2339" d="M78.947,33.6c-.332,0-.663-.012-1-.013-1.007,0-2.015-.023-3.021.01-.483.016-.582-.177-.579-.615.018-2.239.012-4.477,0-6.716a4.086,4.086,0,0,0-.122-.7q-5.224-3.48-10.45-6.958c-1.365-.906-2.744-1.789-4.117-2.683l.005.01-.108-.1c-.185-.008-.37-.023-.554-.023H29.4c-.164,0-.329.009-.493.014H27.04c-.048.1-.081.134-.081.17q-.016,8.422-.029,16.844a2.956,2.956,0,0,1-.55-.25,5.408,5.408,0,0,1-2.375-5.112c.211-2.28.606-4.543.916-6.814q.332-2.434.652-4.869.412-3.1.821-6.208c.224-1.7.412-3.415.678-5.113.229-1.467.184-3,.976-4.346a4.459,4.459,0,0,1,.708-.112Q44.888.011,61.02.015L56.985,4.172l1.2,1.3L63.8.026l5.12-.011c-.174.2-.336.412-.523.6q-5,5-10,10c-.171.171-.333.352-.443.468L59.4,12.627a4.787,4.787,0,0,1,.452-.644Q65.772,6,71.708.026a4.341,4.341,0,0,1,4.63,2.345,10.017,10.017,0,0,1,.725,2.89c.278,1.715.473,3.443.7,5.165q.4,2.98.793,5.959c.222,1.683.436,3.366.66,5.048.229,1.723.483,3.442.694,5.167a34.818,34.818,0,0,1,.353,3.783A4.487,4.487,0,0,1,78.947,33.6M33.417,13.4l8.823-8.82-1.08-1.124L32.312,12.3l1.105,1.1M31.454,9.432l4.813-4.815L35.2,3.417,30.352,8.262l1.1,1.17" transform="translate(-21.016 -0.001)" fill="#8cbce4"/>
    <path id="Path_2340" data-name="Path 2340" d="M5.915,33.764q0,1.368,0,2.736A5.636,5.636,0,0,1,.173,32.35a10.074,10.074,0,0,1,.118-4.036c.545-4.2,1.117-8.391,1.68-12.587.492-3.666.967-7.333,1.484-11A4.349,4.349,0,0,1,7.033,1.053C6.241,2.4,6.286,3.932,6.057,5.4c-.266,1.7-.454,3.408-.678,5.113q-.408,3.1-.821,6.208-.324,2.435-.653,4.869C3.6,23.86,3.2,26.123,2.99,28.4a5.408,5.408,0,0,0,2.375,5.112,2.948,2.948,0,0,0,.55.25" transform="translate(0 -0.923)" fill="#4e96cf"/>
    <path id="Path_2341" data-name="Path 2341" d="M312.905.128Q306.972,6.1,301.044,12.085a4.79,4.79,0,0,0-.452.644l-1.433-1.549c.109-.116.271-.3.443-.468q5-5,10-10c.187-.187.349-.4.523-.6l2.784.011" transform="translate(-262.213 -0.103)" fill="#fefefe"/>
    <path id="Path_2342" data-name="Path 2342" d="M298.066.127l-5.622,5.45-1.2-1.3L295.282.116l2.784.011" transform="translate(-255.278 -0.102)" fill="#fefefe"/>
    <path id="Path_2343" data-name="Path 2343" d="M312.963,128.969c1.373.894,2.752,1.777,4.117,2.683q5.23,3.471,10.45,6.958c-.664.077-1.325.186-1.991.226a28.521,28.521,0,0,0-10.185,2.637,4.6,4.6,0,0,1-.541.162c0-.749,0-1.441,0-2.132a27.792,27.792,0,0,0-1.716-9.938,4.51,4.51,0,0,1-.135-.6" transform="translate(-274.313 -113.042)" fill="#296cb1"/>
    <path id="Path_2344" data-name="Path 2344" d="M312.127,128.238l.108.1-.108-.1" transform="translate(-273.58 -112.401)" fill="#296cb1"/>
    <path id="Path_2345" data-name="Path 2345" d="M92.567,37.932l-1.105-1.1,8.849-8.845,1.08,1.124-8.823,8.82" transform="translate(-80.167 -24.532)" fill="#fefefe"/>
    <path id="Path_2346" data-name="Path 2346" d="M76.692,33.68l-1.1-1.17,4.847-4.845,1.069,1.2L76.692,33.68" transform="translate(-66.255 -24.248)" fill="#fefefe"/>
    <path id="Path_2347" data-name="Path 2347" d="M47.867,145.175q.013-8.422.029-16.844c0-.036.033-.071.081-.17H49.84a31.424,31.424,0,0,0,7.57,20.46,31.784,31.784,0,0,0,11.42,8.5,27.35,27.35,0,0,0,7.787,2.232,55.226,55.226,0,0,0,5.824.376c4.278.056,8.558.021,12.837.022v1.934H47.864V147.912q0-1.368,0-2.736" transform="translate(-41.953 -112.334)" fill="#296cb1"/>
  </g>
</svg>
