<svg id="Group_16548" data-name="Group 16548" xmlns="http://www.w3.org/2000/svg" xmlns:xlink="http://www.w3.org/1999/xlink" width="58.538" height="36.352" viewBox="0 0 58.538 36.352">
  <defs>
    <clipPath id="clip-path">
      <rect id="Rectangle_17308" data-name="Rectangle 17308" width="58.538" height="36.352" fill="none"/>
    </clipPath>
  </defs>
  <g id="Group_16547" data-name="Group 16547" clip-path="url(#clip-path)">
    <path id="Path_2396" data-name="Path 2396" d="M128.111,13.415l5.113,1.181c0,1.253-.017,2.505-.01,3.758a2.018,2.018,0,0,0,2.125,2.16c.626.016,1.253,0,1.88,0,0,3.065.035,6.13,0,9.194a3,3,0,0,1-3.131,2.908c-.742.019-1.486,0-2.229,0a6.4,6.4,0,0,0,.23-3.092,5.846,5.846,0,0,0-4.278-4.737,5.713,5.713,0,0,0-6.133,1.726,5.908,5.908,0,0,0-1.264,6.109l-16.694-.007c-.266,0-.531-.009-.8-.014l-.016-.194a3.99,3.99,0,0,0,.007-.455,21.988,21.988,0,0,1,.507-7.072,11.929,11.929,0,0,1,5.035-7.731c.747-.489.682-1.354-.094-1.945q-3.379-2.577-6.762-5.151-4.993-3.8-9.988-7.6c-.861-.653-1.75-1.268-2.627-1.9L88.86.342C90.343.336,91.825.326,93.308.326q9.838,0,19.676.006.011,5.392.023,10.785a2.086,2.086,0,0,0,2.318,2.335q6.081,0,12.162,0c.208,0,.417-.023.625-.035" transform="translate(-78.7 -0.289)" fill="#3b97d2"/>
    <path id="Path_2397" data-name="Path 2397" d="M24.211,32.37l.016.194q-3.281.016-6.562.033c-.628,0-1.255.014-1.883.021a6.034,6.034,0,0,0-4.9-8.068,5.947,5.947,0,0,0-6.168,3.225,6.068,6.068,0,0,0-.357,4.811,15.51,15.51,0,0,1-1.932-.1A2.919,2.919,0,0,1,0,29.593Q0,17.882.006,6.172A6.034,6.034,0,0,1,5.875.28C7.3.268,8.732.291,10.16.3l.129.218a4.858,4.858,0,0,0,.167.538q1.888,4.309,3.783,8.614,2.369,5.4,4.73,10.812c1.126,2.577,2.239,5.16,3.371,7.735.611,1.391,1.247,2.77,1.872,4.155" transform="translate(0 -0.245)" fill="#547580"/>
    <path id="Path_2398" data-name="Path 2398" d="M314.979,13.127c-.208.012-.417.035-.625.035q-6.081,0-12.162,0a2.086,2.086,0,0,1-2.318-2.335q-.011-5.392-.023-10.785c1.333-.006,2.673-.1,4,0a4.885,4.885,0,0,1,3.72,2.266q3.589,5.18,7.174,10.362a3.975,3.975,0,0,1,.236.452" transform="translate(-265.567 0)" fill="#afd2ef"/>
    <path id="Path_2399" data-name="Path 2399" d="M35.524,220.094a6.069,6.069,0,0,1,.357-4.812,6.045,6.045,0,1,1-.263,4.951.9.9,0,0,0-.094-.139m5.726.97a3.018,3.018,0,1,0-3-3.009,2.985,2.985,0,0,0,3,3.009" transform="translate(-31.168 -187.752)" fill="#2d3f51"/>
    <path id="Path_2400" data-name="Path 2400" d="M362.224,220.019a5.908,5.908,0,0,1,1.264-6.109,5.713,5.713,0,0,1,6.133-1.726,5.846,5.846,0,0,1,4.278,4.737,6.4,6.4,0,0,1-.23,3.092,6.081,6.081,0,0,1-11.287.371c-.054-.121-.106-.244-.159-.365m8.729-2.011a3,3,0,0,0-2.97-3.052,3.018,3.018,0,1,0-.057,6.035,2.981,2.981,0,0,0,3.027-2.984" transform="translate(-320.505 -187.68)" fill="#2d3f51"/>
    <path id="Path_2401" data-name="Path 2401" d="M480.784,131.054c-.627,0-1.254.014-1.88,0a2.018,2.018,0,0,1-2.125-2.16c-.007-1.252.006-2.5.01-3.757a19.551,19.551,0,0,1,1.988.447,2.909,2.909,0,0,1,2.023,2.858c0,.872-.01,1.743-.016,2.615" transform="translate(-422.265 -110.828)" fill="#f0d45c"/>
    <path id="Path_2402" data-name="Path 2402" d="M103.911,34.222c-.625-1.385-1.261-2.764-1.872-4.155-1.131-2.575-2.245-5.158-3.37-7.735q-2.361-5.408-4.73-10.812-1.888-4.308-3.783-8.614a4.855,4.855,0,0,1-.167-.538c.876.633,1.765,1.248,2.627,1.9q5,3.79,9.988,7.6,3.382,2.575,6.762,5.151c.776.592.841,1.456.094,1.945a11.929,11.929,0,0,0-5.035,7.731,22,22,0,0,0-.507,7.072,3.958,3.958,0,0,1-.007.455" transform="translate(-79.7 -2.097)" fill="#285680"/>
    <path id="Path_2403" data-name="Path 2403" d="M64.921,244.593a3.018,3.018,0,0,1,0-6.036,3.018,3.018,0,1,1,0,6.036" transform="translate(-54.839 -211.281)" fill="#afd2ef"/>
    <path id="Path_2404" data-name="Path 2404" d="M394.421,241.614a2.981,2.981,0,0,1-3.027,2.984,3.018,3.018,0,1,1,3.027-2.984" transform="translate(-343.973 -211.285)" fill="#afd2ef"/>
  </g>
</svg>
